<svg id="Layer_1" data-name="Layer 1" xmlns="http://www.w3.org/2000/svg" viewBox="0 0 512 512"><defs><style>.cls-1{fill:#bbedff;}.cls-2{fill:#c5efe7;}.cls-3{fill:#fdffca;}.cls-4{fill:#176668;}</style></defs><title>picture</title><ellipse class="cls-1" cx="267.89" cy="261.08" rx="173.11" ry="165.45"/><ellipse class="cls-2" cx="390.93" cy="230.46" rx="67.26" ry="61.17" transform="translate(-35.71 75.8) rotate(-10.59)"/><ellipse class="cls-2" cx="318.77" cy="140.47" rx="58.17" ry="39.56" transform="translate(-11.35 251.67) rotate(-42.4)"/><ellipse class="cls-2" cx="187.44" cy="313.63" rx="43.5" ry="67.18" transform="translate(-54.47 39.81) rotate(-10.59)"/><polygon class="cls-3" points="277.95 189.94 182.04 204.33 277.95 300.24 277.95 189.94"/><polygon class="cls-3" points="193.23 332.21 206.02 233.1 242.78 252.28 193.23 332.21"/><path class="cls-4" d="M448.78,245c1.85-35.12-8.87-69.26-26.64-96.39-19.05-29.09-45.55-49.67-75-59.76-34.06-11.68-70.69-10.56-105.21-1.27a233.68,233.68,0,0,0-26.24,8.77,1.28,1.28,0,0,0-.71.78c-16-.44-32,5.75-45.9,16.06.13-.64.25-1.28.38-1.91.22-1.08-1.06-1.71-1.37-.6-.37,1.33-.69,2.68-1,4a109.22,109.22,0,0,0-17.67,17.44c-11.51,14.24-20.38,31.18-27.44,49.1a312.3,312.3,0,0,0-17.36,61.61C101,264,100.58,286,105.87,306.71a134.33,134.33,0,0,0,21.62,45.8c19.67,27,46.75,43,75.29,51.32-.15.45-.3.9-.47,1.35-.37,1,.93,1.56,1.3.58.19-.51.37-1,.55-1.52q4.83,1.37,9.71,2.47a233.13,233.13,0,0,0,101.49-.33c32.63-7.32,64.86-22.32,91.68-46.6a99.55,99.55,0,0,0,29.61-47.7c3-10.51,5.21-21.4,7.33-32.21A248.7,248.7,0,0,0,448.78,245ZM167.22,124.28c.26-2.07.59-4.13,1-6.18a83.38,83.38,0,0,1,25.57-14.77c-4.95,4.62-9,11.75-12.47,17.13-1.8,2.77-3.76,6.27-6,9.1-.21-.32-.56-.51-.88-.28a37.73,37.73,0,0,0-5.49,5C166,134.14,166.82,127.39,167.22,124.28Zm274,151.64c-3.8,19.93-7.54,41.66-17.65,58.55-9.72,16.23-24.32,27.91-38.54,37.6a199.55,199.55,0,0,1-44.62,22.78,219.66,219.66,0,0,1-52,11.8C300.56,382.23,314,359,329.91,337.83c.63-.84-.56-2.18-1.21-1.34C312.09,357.8,297,381.31,285.16,407a243.18,243.18,0,0,1-39.25.32,209.6,209.6,0,0,1-40.58-6.72c2.57-8.95,3.44-18.37,4.85-27.7a77.73,77.73,0,0,1,4.1-16.85c2.53-6.43,6.65-11.14,10.67-16.18,5.62-7,9.47-15,10.07-24.9.52-8.53-5-21-8.77-29.41a37.36,37.36,0,0,1,5.86-8.78c2.69-2.95,5.86-4.73,8.81-7.18.74-.62.1-2.12-.73-1.88-6.3,1.84-11.62,8.82-14.77,16l-.35-.78c-.55-1.24,1.38,2.79.77,1.62a19.36,19.36,0,0,1-1.3,1.57c.74,1.49-.91-2,0-.21-.3.81-.59,1.62-.83,2.42s.77,1.29,1.09.48c.17-.42.35-.84.53-1.25,3.88,8.16,8.17,18.51,7.9,26.06-.41,11.65-5.47,19.62-12,27.65S211,357.66,209,368.57c-1.88,10.49-2.35,21.39-5.14,31.59-19.36-5.51-37.94-14.48-54.13-28.54-24-20.81-42.12-52.59-44.47-89-1.46-22.69,2.81-45.44,8.72-66.91,5.23-19,11.78-37.64,20.64-54.63a162.76,162.76,0,0,1,11-18.16,92.25,92.25,0,0,0-10,26.55c-.23,1.07,1.07,1.69,1.35.59a92.34,92.34,0,0,1,9.87-24.46c4.48-7.59,10-13.37,15.74-19.43.68-.72,0-2.23-.87-1.65s-1.69,1.22-2.51,1.89q3.33-3.43,6.87-6.52c-.24,1.41-.46,2.82-.65,4.24-.4,3-1.72,8.12-.07,10.92a3.57,3.57,0,0,0,1.54,1.49,124.13,124.13,0,0,0-9.77,14.15c-4.27,6.95-9,15.12-10.55,23.81-4.37-3.82-11.32-4.45-14.22,2-.23.51.36,1,.62.53,2.19-4.39,6.43-4.84,10.09-3.22a10,10,0,0,1,3.26,2.32c-.1.71-.18,1.43-.23,2.15-.07.93,1.07,1,1.18.11,0-.3.09-.6.14-.89,2,2.91,2.88,6.87,2.93,11,.14,10.52-4.28,20.37-3.8,30.94.4,8.81,4.73,14.7,11,18.61,6,3.74,12.4,6.42,18.79,9.09-1.3,2.67-2.53,5.41-3.65,8.21-.28.69.67,1.3,1,.62q2-4.19,4.15-8.21c1.66.7,3.32,1.4,5,2.13,4.58,2,3.5,3.64,8,6.1a20.49,20.49,0,0,1,1.72-1.17c-3-1.68-.43-2.67-3.54-4.11-3.41-1.58-6.87-3-10.32-4.49a129,129,0,0,1,10.16-15.59,113.61,113.61,0,0,1,8.81-10.23c3.21-3.3,4.56-3.35,7.52-6.94.62-.75,0-1.94-.81-1.54-3.92,1.89-4.92,3.18-8.09,6.49a111.57,111.57,0,0,0-8.92,10.56,113.83,113.83,0,0,0-10.22,16.59c-5.47-2.31-10.93-4.64-16.24-7.43-4.58-2.41-9.25-5.6-11.49-11.3-2.6-6.6-1.33-14.43,0-21.27,1.83-9.23,4.95-22.32-1.62-29.87,1.87-9,7.24-17.55,11.79-24.72,3.51-5.54,7.7-10.17,11.68-15.07a14.78,14.78,0,0,0,3.51-2.92c4.25-4.85,7.67-10.66,11.3-16.16a79.85,79.85,0,0,1,6.73-9.06,66.09,66.09,0,0,1,6.94-6.15,65.24,65.24,0,0,1,10.93-1.77,59.53,59.53,0,0,1,22.73,2.72c.86.28,1.37-1.28.5-1.61a56.1,56.1,0,0,0-13.52-3.38c24.14-7.9,49.06-13,74-13,8.16,11,3.67,24.73-1.1,36.57-.21.51.5,1,.73.46,4.6-10.43,10.76-26.87,3-37a166.79,166.79,0,0,1,22,1.8c30.78,4.62,60.2,18.62,83.55,43.5a160.36,160.36,0,0,1,41.56,86.67C446.82,236.43,444.92,256.3,441.18,275.92Z"/><path class="cls-4" d="M176.26,387.76c-8.16-8.13-10.13-20.17-12.13-32.19-.39-2.36-.81-4.67-1.27-6.94.43-1.65.89-3.3,1.39-4.93.34-1.11-1-1.71-1.41-.62-.24.71-.49,1.42-.72,2.15a71.82,71.82,0,0,0-5.17-15.14c.81-2.23,1.67-4.45,2.61-6.67.47-1.11-1.08-2.1-1.59-1q-1.18,2.54-2.3,5.2c-.63-1.15-1.31-2.28-2-3.39-1.57-2.38-3.25-4.71-4.83-7.11.57-1.24,1.14-2.47,1.74-3.69.5-1-.69-2.09-1.26-1.07s-1.09,2-1.61,3a42.2,42.2,0,0,1-4.49-9.18,37.36,37.36,0,0,1-1.74-9.56l.69-1.81c.22-.58-.42-1-.78-.69a77.62,77.62,0,0,1,.81-11.14c1.45-10.62,4.67-22.22,4-33.26l1.54-2.63c.61-1-.68-2.11-1.32-1.12l-.51.79a36.91,36.91,0,0,0-1-5c-1.3-4.72-3.65-7.7-6.89-9.68a.7.7,0,0,0-.49-.28,20.44,20.44,0,0,0-3.14-1.43,55.7,55.7,0,0,0-22.16-3.2c-.48,0-.57.92-.07.92a61.87,61.87,0,0,1,20.5,3.4,33.32,33.32,0,0,1,3.32,1.35c-3.13,2.84-4.63,7.21-6.33,11.49-2.89,7.27-5.63,14.63-8.33,22-4.68,12.78-11.26,27.54-10.55,41.9.06,1.29,1.67,1.05,1.8-.12a112.9,112.9,0,0,1,3.87-20.51c1.93-6.35,4.26-12.52,6.49-18.72s4.63-12.64,7-18.93c2-5.37,3.72-12.45,7.75-16.16A11.81,11.81,0,0,1,141,237c2.2,3.15,3,7.5,3.3,11.52,0,.18,0,.35,0,.53-13.83,22-27.08,48.63-23.14,77.09.18,1.29,1.73.89,1.63-.38-2.1-27.7,9-51.29,21.62-73.23,0,13.22-4.37,26-4.73,39.25,0,1.69,0,3.38.1,5.05-6.31,12.52-10.06,27.64-11.95,41.9-.16,1.19,1.34,1.3,1.52.15a183.42,183.42,0,0,1,5.1-23.28c1.6-5.44,3.61-10.58,5.63-15.76a37.46,37.46,0,0,0,2.51,9.59,49.44,49.44,0,0,0,4.12,7.61,111.41,111.41,0,0,0-7.09,18.26c-2.26,7.76-4.61,16.89-4.32,25.17,0,.89,1.18,1.44,1.41.37,1.73-8,2.44-16.08,4.65-24a133.63,133.63,0,0,1,6.55-18c1.36,2,2.76,4,4.1,6a49.72,49.72,0,0,1,2.75,4.73c-4.65,11.59-8.06,24.51-8.47,37.16,0,1.32,1.44,1.41,1.65.16,2-12.06,4.32-23.46,8.12-34.6a80.42,80.42,0,0,1,4.95,16.1c-2.58,8.49-4.54,18-4.06,26.69.07,1.34,1.68,1.06,1.84-.12.68-5.07.77-10.2,1.6-15.26.4-2.44.88-4.85,1.43-7.24.42,2.22.82,4.48,1.22,6.78,1.91,10.87,4.37,23.13,12.41,29.7C176.21,389.56,176.87,388.37,176.26,387.76Z"/><path class="cls-4" d="M335.64,91.58c-.9.84-1.78,1.69-2.64,2.57-.62.64.18,1.8.81,1.16.86-.89,1.7-1.8,2.53-2.74C336.85,92,336.2,91.07,335.64,91.58Z"/><path class="cls-4" d="M412.8,311.3c-.59.77-1.14,1.58-1.68,2.41-4.57-14.26-10.55-29.28-19.33-40.1-3.79-4.67-8.52-8.38-14-8.88-6.79-.61-13,3.46-19.41,5.62-12.16,4.12-25.57.67-35.61-8.31a44.88,44.88,0,0,1-12.06-17.68c-3.63-9.78-1.43-18.74,3.53-27.19,8.89-15.13,22.54-25.66,37.35-29.83.81-.23.6-1.73-.23-1.55-13.19,2.74-25.25,10.76-34.35,22.78-4.32,5.71-8.54,12.55-10,20.2s.5,15.29,3.9,21.73c6.35,12,17.11,20.17,28.63,22.83a35.4,35.4,0,0,0,18.22-.51c7.37-2.23,14.69-7.62,22.47-5.34,8.64,2.53,14.2,12.58,18.59,21.2q2.78,5.46,5.29,11.13a.62.62,0,0,0-1.12,0c-8.27,14.53-16.41,29.16-24.57,43.79q-6,10.79-12,21.63c-3.81,6.91-8.5,13.85-11.35,21.42-.33.88.73,1.82,1.29,1.1,4.55-5.86,8-13.42,11.66-20.09q6.2-11.17,12.32-22.4c8-14.75,16-29.52,23.8-44.44a1,1,0,0,0,.1-.66q3.24,7.35,6,15c-2.26,3.8-4.17,8-6.24,11.89-3.08,5.71-6,11.51-9.16,17.19-.4.74.48,1.48.91.78,3.39-5.44,6.83-10.83,10.07-16.41,1.85-3.19,3.95-6.42,5.76-9.8.35.56,1.16,0,.93-.74l-.21-.67a41.08,41.08,0,0,0,2.06-4.78C414.71,311.56,413.48,310.41,412.8,311.3Z"/><path class="cls-4" d="M373.83,144.23c-3.76-10-12.88-13.81-21.46-12.57C342,133.15,333.83,142,327.12,151.11a293.8,293.8,0,0,0-26.54,42.58c-.8,1.6,1,3.22,2,1.67,7.63-13,15-26,23.53-38.18,7.69-11,17.3-23.06,30.07-23a16.82,16.82,0,0,1,14.72,8.3c3.24,5.5,3.56,12.64,2.4,19.1-2.36,13.17-11.93,28.3-24.08,27.38-.6,0-.69,1.07-.08,1.14C366.55,192.05,380.74,162.57,373.83,144.23Z"/><path class="cls-4" d="M299,193.77c-3.21,3.46-8.79,8.74-13.35,6.29s-5-10.11-4.66-15.19a32.1,32.1,0,0,1,5.64-16.17c2.24-3.23,5.14-6.22,6.11-10.43,1.43-6.21-1.46-11.84-6.86-11.43a21.46,21.46,0,0,1-3.79.38q-2.59.29-1.76-3.09-1.09-2.46.62-3.47c1.18-1.64,3.84-3.06,5.37-4.28,4.13-3.31,8.26-6.64,12.4-9.94.44-.35,0-1.3-.5-1-5.34,4.06-10.73,8-16,12.14-2.27,1.75-5.92,4.39-4.56,8.31s5.25,2.87,7.93,2.77c5.74-.2,7,5.47,4.51,10.81-1.27,2.67-3.16,4.81-4.83,7.11-5.74,7.91-8.92,21.05-4.67,30.84,4.71,10.84,14.06,3.43,19.16-2.68C300.22,194.19,299.55,193.19,299,193.77Z"/><path class="cls-4" d="M124.21,229.92c-8.89,11.64-14.36,28.48-16.42,43.9-.17,1.27,1.6,1.77,1.84.49a139.34,139.34,0,0,1,5.9-21.91c2.75-7.5,6.51-14,10.12-20.88C126.22,230.43,125,228.87,124.21,229.92Z"/><path class="cls-4" d="M211.68,114.78C184.15,138,162.82,171.41,150.24,209c-.28.84.78,1.3,1.07.47,13.07-37.3,34.53-69.24,61.4-93.22C213.56,115.52,212.52,114.07,211.68,114.78Z"/><path class="cls-4" d="M225.42,121.83c-15.18,12.47-28.64,29.6-40.11,46.86a275,275,0,0,0-29.13,57.44c-.32.88.79,1.34,1.14.5a320.59,320.59,0,0,1,29.75-56.45,273.8,273.8,0,0,1,18.75-24.88c6.6-7.77,13.75-14.62,20.73-21.85C227.42,122.53,226.33,121.07,225.42,121.83Z"/><path class="cls-4" d="M198.38,182.4c-8.06,5.4-15.05,14.63-20.91,23.13a134.07,134.07,0,0,0-15.33,30.1c-.28.77.69,1.16,1,.44a156.93,156.93,0,0,1,15.62-28.57c6.18-8.92,13.56-15.56,20.54-23.38C200,183.35,199.26,181.8,198.38,182.4Z"/><path class="cls-4" d="M198.7,204c-6.17,3.75-12.06,10.15-16.74,16.25a49.52,49.52,0,0,0-9.5,19.88c-.22,1,1,1.59,1.28.57a57,57,0,0,1,10.53-19.57c4.71-5.73,10.6-9.82,15.29-15.49C200.18,204.86,199.57,203.46,198.7,204Z"/><path class="cls-4" d="M196.09,231.43a44,44,0,0,0-10.58,16.27c-.3.76.72,1.42,1.08.68A62.92,62.92,0,0,1,197.2,233C198,232.11,197,230.61,196.09,231.43Z"/><path class="cls-4" d="M252.8,271c-8.55,5.11-15.16,16.94-19.33,26.93-.29.7.68,1.32,1,.63a77.39,77.39,0,0,1,8.13-13.8c3.38-4.56,7.47-7.9,11.08-12.1C254.35,271.93,253.69,270.5,252.8,271Z"/><path class="cls-4" d="M258.54,280.61c-3.67,2-6.7,6.72-9.44,10.23s-5.42,7.31-7.92,11.17a162.8,162.8,0,0,0-13.78,26.29c-.27.66.63,1.23.94.6a212.74,212.74,0,0,1,14.25-24.76c2.7-4,5.56-7.84,8.53-11.56,2.7-3.37,6.42-6.49,8.43-10.5C260,281.24,259.32,280.19,258.54,280.61Z"/><path class="cls-4" d="M290.8,266.15c-8.29,4.48-15.84,12.33-22.51,19.67a241.38,241.38,0,0,0-18.91,24.09c-6.15,8.78-12,17.9-17.7,27.07-3.07,4.89-6.17,9.78-8.89,15-2.2,4.2-5,9.48-5.43,14.49-.05.63.66.94,1,.42,2.74-4.85,4.54-10.43,7.35-15.32,2.65-4.6,5.55-9,8.37-13.44,5.53-8.75,11.12-17.46,17-25.86a246.37,246.37,0,0,1,18.92-24c6.87-7.58,14.45-13.49,21.84-20.19C292.67,267.24,291.74,265.64,290.8,266.15Z"/><path class="cls-4" d="M282.35,289c-28.86,27.47-55,63-70.83,103.43-.37.95.89,1.75,1.34.85,9.35-19.19,19.08-37.9,30.74-55.2a311.27,311.27,0,0,1,39.63-47.82C283.91,289.59,283,288.35,282.35,289Z"/><path class="cls-4" d="M284.27,306c-6.69,4.81-12.56,12.14-18.05,18.76-5.79,7-11.26,14.35-16.46,22-10.76,15.76-20.31,32.61-29.82,49.48-.3.54.36,1.1.68.58,9.59-15.87,19.18-31.81,29.6-46.91,5.26-7.62,10.71-15,16.52-22.06s12.58-13,18.48-20C285.89,307,285.2,305.35,284.27,306Z"/><path class="cls-4" d="M299.15,298.37c-12,14.08-24.05,28.24-34.84,43.75-10.35,14.87-21.16,32.18-26.06,51-.28,1.07.9,1.52,1.3.58,3.91-9.14,7.46-18.34,12.07-27a250.7,250.7,0,0,1,14.1-23.3c10.56-15.55,22.37-29.75,34.18-43.88C300.43,298.81,299.69,297.73,299.15,298.37Z"/><path class="cls-4" d="M307.64,313.89c-6.18,5.85-11.67,13-17.14,19.77s-10.74,13.6-15.9,20.63a526.25,526.25,0,0,0-29.79,45.58c-.35.61.4,1.24.77.65q14.12-22.58,29.78-43.65,8.05-10.85,16.5-21.25c5.54-6.79,11.56-13.1,16.89-20.14C309.49,314.51,308.55,313,307.64,313.89Z"/><path class="cls-4" d="M317.08,312.1a340,340,0,0,0-31,41.64C281.42,361.24,277,369,272.84,377c-3.92,7.49-8.93,15.85-11,24.42-.28,1.15.89,1.9,1.51,1,2.33-3.53,4-7.85,5.82-11.75s3.83-7.92,5.83-11.81q6-11.7,12.73-22.79a344.17,344.17,0,0,1,30.22-42.7C318.51,312.59,317.7,311.39,317.08,312.1Z"/><path class="cls-4" d="M333.84,311.23c-5.89,5.53-10.83,13.49-15.72,20.28q-7.9,11-15.44,22.31-15.08,22.71-28.22,47.12c-.37.68.45,1.38.84.72Q289.09,378.3,304.06,356q7.37-11,15.09-21.63c5.2-7.17,11.45-13.91,15.92-21.75C335.62,311.61,334.59,310.52,333.84,311.23Z"/><path class="cls-4" d="M362.46,312.29c-5.42,6.07-9.8,14-14.51,20.86q-7.77,11.34-15.74,22.48c-10.72,15-21.55,30-32.69,44.49-.47.61.2,1.61.69,1,11-13.81,21.89-27.71,32.39-42.08q7.84-10.73,15.51-21.65c5.27-7.51,11.58-15.07,15.74-23.56C364.38,312.76,363.31,311.34,362.46,312.29Z"/><path class="cls-4" d="M361,327c-7.26,11.23-14.29,22.67-20.91,34.46q-5,8.84-9.72,17.84c-2.88,5.44-6.63,11.19-8.42,17.3-.41,1.42,1,2.13,1.79,1.13,3.83-5.12,6.45-12.16,9.49-18s6.09-11.55,9.24-17.25c6.41-11.62,13-23.12,19.82-34.38C362.9,327.06,361.63,326,361,327Z"/><path class="cls-4" d="M389.9,313.16c-7.9,10.3-14.69,22-22.1,32.83-7.92,11.57-16.13,22.84-24.83,33.56-.44.55.17,1.46.63.91,8.5-10,16.57-20.51,24.38-31.32,8-11.06,16.51-22.22,23.44-34.3C392.08,313.71,390.74,312.07,389.9,313.16Z"/><path class="cls-4" d="M284.67,196.4c-29.05-3.9-61.63-.07-90.91-2a2.66,2.66,0,0,0-2.59,3.89c6.49,12.54,14.68,14.37,21.29,26.85-24.21,24.15-36.83,66.66-2.73,113.06,1.63,2.22,5.63.29,4-2-15.83-22.67-36.27-70.68,3.91-108.64a2.47,2.47,0,0,0,.5-3c-5.89-11.81-13.74-12.8-19.77-24.55,26.6,1.92,56.51-2.16,82.93,1.37q-5.17,40.36-10.15,80.75c-7.8-3.07-15.25-19.9-23-23a3.09,3.09,0,0,0-2.92.62c-30.05,28.75-31.26,44.82-28.68,84.63.22,3.46,6.16,3.65,5.94.16-2.35-37.82-2.32-51.74,25.6-79.56,8.35,3.25,16.37,20.2,24.69,23.5,1.89.75,3.53-.94,3.73-2.45q5.61-43.43,11.1-86.86C287.79,197.62,286.15,196.59,284.67,196.4Z"/></svg>