<svg id="Layer_1" data-name="Layer 1" xmlns="http://www.w3.org/2000/svg" viewBox="0 0 512 512"><defs><style>.cls-1{fill:#c5efe7;}.cls-2{fill:#426868;}.cls-3{fill:#ccf2ff;}</style></defs><title>picture</title><ellipse class="cls-1" cx="241.96" cy="274.23" rx="197.11" ry="114.91" transform="translate(-46.29 49.16) rotate(-10.59)"/><path class="cls-2" d="M337.12,186.76c-12.77,4-25.44,8.1-38.46,11.28q-9.85,2.4-19.82,4.33l4.77-3.68c2.83-2.19,6.21-4.28,8.56-7a1,1,0,0,0-1.16-1.5c-3.13,1.79-5.81,4.65-8.53,7L276,202.91q-8.29,1.55-16.63,2.78c-2.54.37-5.09.71-7.64,1,6.48-2.61,12.78-6.15,17.6-11.06.73-.74-.26-2.17-1.16-1.5-7.21,5.38-14,10.28-22.58,13.29q-5.5.62-11,1.1a89.12,89.12,0,0,1,7.26-5.61c3.16-2.18,6.83-3.79,9.79-6.2.61-.5,0-1.53-.76-1.3-3.92,1.26-7.57,4.23-10.83,6.67a93.42,93.42,0,0,0-7.86,6.64q-5.14.41-10.3.71,3.22-2,6.35-4.17c3.66-2.55,8.31-5.3,11.09-8.83a.88.88,0,0,0-1.06-1.37c-4.15,2.19-7.79,6-11.53,8.83q-3.88,2.93-7.87,5.7-17.4.85-34.82.29c8.64-4.73,17.41-9.22,25.95-14.12a1.15,1.15,0,0,0-1.16-2c-9.11,5.13-18,10.74-27,16l-3.14-.12q-5.27-.24-10.52-.63c6-2.87,12-5.78,17.85-8.82,1.39-.72.17-2.78-1.22-2.09-6.86,3.41-13.63,7-20.39,10.63-5.57-.45-11.14-1-16.69-1.62l.83-.36c3.92-1.72,8.43-3.39,11.75-6.14.8-.66-.06-2.05-1-1.73-3.94,1.32-7.6,3.85-11.36,5.65-1.52.73-3.06,1.41-4.6,2.08q-4.67-.55-9.34-1.13c-1.42-.18-1.76,2.25-.34,2.52s3.06.56,4.59.82c-.9.39-1.81.79-2.7,1.2s-.23,1.61.59,1.39c2-.55,4-1.22,5.93-2q8.42,1.33,16.94,2.21-3.83,2.05-7.66,4.08c-.72.38-.09,1.43.63,1.08q5-2.45,10.11-4.86a407.29,407.29,0,0,0,51.84,1.46l1.23,0h0a420.37,420.37,0,0,0,78.63-10.3c14.94-3.42,30-7.38,44.32-12.84C340.24,189.46,339.4,186,337.12,186.76Z"/><path class="cls-2" d="M328.43,172c-11-2-22.14-3.33-33.2-5l-16.61-2.43c-4.87-.71-10.16-1-14.8-2.68-3.56-1.33-8.89-5.16-3.86-8.64,3-2.08,6.7-2.64,9.6-5a18.43,18.43,0,0,0,5.88-19.41,2.08,2.08,0,0,0-1.93-1.47,95.94,95.94,0,0,0-36.67,3.41c-8.54,2.54-19.79,6.93-20,17.51a11.37,11.37,0,0,0,.86,4.6q-2.16,1.44-4.41,2.8c-.76.46-.09,1.48.67,1.15,1.58-.67,3.13-1.41,4.65-2.22a10.09,10.09,0,0,0,3.87,3.41,15.43,15.43,0,0,0,1.54.65q-2.77,1.64-5.63,3.21c-.76.42-.24,1.74.6,1.43a67.09,67.09,0,0,0,7.82-3.49,5.08,5.08,0,0,1,2,1.76c1.17,1.88.6,3.82-.62,5.41l-4.4,3a.76.76,0,0,0-.33.46c-5.38,2.46-11.81,3.54-17.41,5.16l-19.49,5.64c-15.09,4.36-30.21,8.65-45.25,13.18a1.42,1.42,0,0,0,.75,2.73c26.27-7.11,52.46-14.57,78.61-22.13,4.28-1.24,9-2.88,11.2-7.06a9.63,9.63,0,0,0,.62-1.43c4.59-2.76,9.18-5.53,13.69-8.42,1.42-.91.1-3.18-1.33-2.27-4,2.56-7.94,5.22-11.87,7.9a7.52,7.52,0,0,0-2.6-5.89,85,85,0,0,0,9.46-6.49c1.18-.94-.41-3-1.63-2.11-3.34,2.54-6.74,4.85-10.22,7-2.2-1.16-4.54-1.94-5.94-3.63a62.48,62.48,0,0,0,7.95-5.82c1.25-1.07-.56-2.85-1.8-1.8-2.34,2-4.73,3.82-7.19,5.58a7.57,7.57,0,0,1-.25-2.32c.22-5.92,5.55-9.39,10.51-11.42,12.71-5.22,27-6.78,40.61-5.64a14.33,14.33,0,0,1-2.67,11.61c-2.9,3.81-7.12,4.38-11,6.72-7.07,4.3-4.49,11.95,2,15.12,4.23,2.08,8.88,2.47,13.48,3.15l17.89,2.64c12.09,1.78,24.17,3.86,36.31,5.26C330.05,176.06,330.56,172.42,328.43,172Z"/><path class="cls-2" d="M465.95,223.46c-11.26-15-28.38-41.62-8.9-63a2.26,2.26,0,0,0,0-3.11A73.25,73.25,0,0,1,445.82,141c-1.37-2.74-1.6-4.39-4.8-4.85a21.6,21.6,0,0,0-7.51.29c-10.2,2.15-18.19,11.21-21.41,20.79-9.5,28.25,12.61,35,9.34,63.15-1.47,12.59-11.58,25.86-25.29,25-1.91-.12-1.87,2.79,0,3,10.06.9,18.81-5.28,23.94-13.57,6.42-10.38,6.15-22.85,3.51-34.4-5.13-22.48-22-37.87,2.89-56a21.39,21.39,0,0,1,8.19-3.75,14.88,14.88,0,0,1,4.84-.3c1.77.24,1.7,1.22,2.51,2.84a76.66,76.66,0,0,0,10.56,15.73c-16.91,17.25-7.32,47.4,7.68,64.55,13.24,15.13,8.7,41.13-9.39,59.63a76.3,76.3,0,0,0,4.84-12.87.68.68,0,0,0-1.31-.36,68.56,68.56,0,0,1-10.26,19.08,56.56,56.56,0,0,1-20.82,9.6c9.25-8.84,16.19-20.31,20.9-32.11.29-.73-1-1.26-1.28-.54-5.42,12-13.09,22.09-22.23,31.51a1.23,1.23,0,0,0-.07,1.71,72,72,0,0,1-17.46,1c1.55-1.43,2.9-3.23,4.3-4.65q3.61-3.67,7.38-7.19c5-4.68,10.3-9,15.4-13.63.77-.69-.24-2-1.12-1.45a139,139,0,0,0-16.24,13.12q-3.8,3.47-7.45,7.11c-2.18,2.18-5.1,4.4-6.22,7.32a.83.83,0,0,0,.48,1.09A1.74,1.74,0,0,0,401,303.7c12.85,3,27.07-.41,38.46-6.65C451.52,290.46,488.65,253.73,465.95,223.46Z"/><path class="cls-2" d="M97.9,303.68c-4.15,3.58-8.14,7.43-12,11.36-.95.35-1.9.67-2.87.94,2.54-2,5.06-4.07,7.46-6.23,1.07-1-.47-2.42-1.55-1.55-3.41,2.73-6.65,5.71-9.89,8.67a46.38,46.38,0,0,1-13.66.12,18.25,18.25,0,0,0,4.52-3.67c.68-.78-.2-2.15-1.17-1.52-2.14,1.41-4,3.14-6.25,4.44l-.4.22a69.69,69.69,0,0,1-7.25-1.78A75.41,75.41,0,0,1,43.6,310.4l4.18-2.3c3-1.66,6.3-3.11,9-5.29a.88.88,0,0,0-.85-1.46c-3.22,1.21-6.14,3.33-9.09,5.1l-5,3a29.81,29.81,0,0,1-10.35-8.67c2.31-1.13,4.57-2.35,6.84-3.54,2.52-1.33,5.3-2.45,7.43-4.36a.85.85,0,0,0-.82-1.41c-2.74.82-5.16,2.61-7.61,4.06-2.23,1.32-4.48,2.62-6.66,4a20.74,20.74,0,0,1-3-9.59h0a151.13,151.13,0,0,0,14.43-9.86c.94-.74-.28-2.31-1.28-1.66a146,146,0,0,0-13.22,9.89,64.54,64.54,0,0,1,.54-9.57c4.69-3.55,9.37-7.11,14-10.78,1.28-1-.53-2.81-1.8-1.8-4,3.17-7.88,6.41-11.77,9.68.36-2.47.79-4.93,1.19-7.34.26-1.54.54-3.07.86-4.61a25.05,25.05,0,0,1,3.32-2.37,1.18,1.18,0,0,0-1.19-2c-.44.23-.87.49-1.29.76A49,49,0,0,1,36,248.36a41.25,41.25,0,0,1,31.08-20.71,43.59,43.59,0,0,1,22.86,3.85c1.59.73,4.45,2.31,5.76.09a1.37,1.37,0,0,0-1.09-2.19.79.79,0,0,0-.31,0c-1.52-1.48-6-3.23-6.74-3.53a45.68,45.68,0,0,0-31-.58,46,46,0,0,0-27.22,26.19,74.54,74.54,0,0,0-4.14,15.91c-.16.32-.32.64-.46,1a.89.89,0,0,0,.16,1c-.25,1.63-.48,3.26-.7,4.89-.27,2-.55,4-.78,6l-5.14,4.31c-.61.51.22,1.6.86,1.11l4-3.07a39.9,39.9,0,0,0,.65,12.91c1.84,7.6,7.08,12.91,13.46,16.76l-.23.14a.73.73,0,0,0,.74,1.26l1-.54a75.2,75.2,0,0,0,13.95,5.75q1.16.36,2.34.69l-.19.06a.64.64,0,0,0,.34,1.23c.8-.17,1.63-.38,2.46-.61a57,57,0,0,0,17.25,1.67.71.71,0,0,0,.81-.06,32.1,32.1,0,0,0,18.19-7.18c1.1-.93.21-2.52-1-2.69,2.42-2,4.79-4.07,7.08-6.19C101.38,304.46,99.32,302.46,97.9,303.68Z"/><path class="cls-2" d="M420.94,262.66c-6.3,6-12.58,12.13-19.11,17.93-5.44,4.84-11.28,9.28-16.78,14.06a88.55,88.55,0,0,0,3.19-11.55c.18-.87.33-1.74.48-2.61,2.91-3,5.92-5.95,9-8.81,4.17-3.89,8.85-7.29,12.9-11.27,1.09-1.07-.33-3-1.65-2.14-4.65,3-8.79,7.22-12.72,11.11-2.42,2.4-4.73,4.91-7,7.47q.46-3.51.67-7l.08,0a119.37,119.37,0,0,0,21.71-17.65c1.26-1.33-.74-3.34-2-2A148,148,0,0,1,390,267.5c1-30.46-12.53-61.11-34.67-81.9a72.19,72.19,0,0,0-10.21-8c-2-1.27-4.39,1.76-2.54,3.29C356,192,367.4,204.49,375.21,220.16a100,100,0,0,1,10.69,49.79c-2,35.78-26.61,65.21-57.31,81.57C291.3,371.38,247,371.07,206.43,363.9c-4.49-.79-9-1.67-13.58-2.65,1.83-1.36,3.65-2.73,5.43-4.17,1.24-1-.34-2.81-1.64-2.13a49.11,49.11,0,0,0-8,5.36C156.72,352.91,125,339.57,108.07,310A86.77,86.77,0,0,1,97.4,254.41a88.54,88.54,0,0,1,24.48-48.47,85.88,85.88,0,0,1,10.93-9.34c1.42-1,.07-3.4-1.39-2.37a89.89,89.89,0,0,0-35.77,53.47,1,1,0,0,0-1.26.13c-1.6,1.64-2.74,3.7-4.34,5.38a21.81,21.81,0,0,1-3.71,3.07,20.87,20.87,0,0,0-9.87-6.78c1.55-1.16,3-2.42,4.48-3.67,2.46-2.14,5.61-4.5,7.06-7.48.43-.89-.51-2.12-1.47-1.47-2.65,1.77-4.59,4.7-6.83,7-1.75,1.76-3.62,3.39-5.46,5.06-.39-.09-.78-.16-1.18-.23a21.14,21.14,0,0,0-5.58-.16,28.31,28.31,0,0,0,3.31-4.56,1.05,1.05,0,0,0-1.64-1.27,41,41,0,0,0-5.53,6.59,23.71,23.71,0,0,0-13.21,10.38C40,276.44,50,302.4,71,303.78c5.72.38,11.83-1.6,15.37-6.28,2.87-3.78,4.12-9.77,1.12-13.82a1.45,1.45,0,0,0-2.64,1.12c3.27,13.4-11.66,18.08-21.71,12.66a25.71,25.71,0,0,1-13-24.22A25.16,25.16,0,0,1,58,256.65c-.5.67-1,1.34-1.5,2s.65,1.64,1.26,1c1.84-2.05,3.63-4.14,5.42-6.24a17.06,17.06,0,0,1,2.93-.91,19.14,19.14,0,0,1,17.69,5.73.76.76,0,0,0,.49.55A16.91,16.91,0,0,1,87.74,265c.32,1.11,2.23,1,2.1-.28a16.41,16.41,0,0,0-2.57-7.16,21.4,21.4,0,0,0,7.64-6.35,88,88,0,0,0,3,44.3A91.24,91.24,0,0,0,132,341.08c15.8,11.15,34.41,17.69,53.09,22.24-1.45,1.29-2.86,2.61-4.21,3.89a96.86,96.86,0,0,0-13.11,14.95c-.72,1,.94,2.33,1.76,1.36a150.14,150.14,0,0,1,13.31-14.34c1.93-1.77,4-3.39,6-5q6,1.38,12.08,2.58c-2.85,2.32-5.45,5.27-7.9,7.69-3.87,3.83-7.51,7.88-11,12.07-.5.6.31,1.45.87.87q5.5-5.61,11.24-11c3.18-3,7.21-5.74,10.23-9q6.45,1.2,13,2.14c-5.65,5.93-11.16,12.12-16.35,18.45a.71.71,0,0,0,1,1c6.21-5.83,12.25-12,18-18.3a1.35,1.35,0,0,0,.36-.74q7.77,1,15.6,1.65c-2.6,2.06-5,4.65-7.32,6.85-3.4,3.17-6.78,6.36-10.18,9.54-.64.6.3,1.51,1,1,3.57-3,7.15-6,10.7-9,3-2.57,6.56-5,9.12-8.11q8,.51,16,.48c-2.94,2.23-5.48,5.33-8,7.85-3.43,3.38-6.88,6.72-10.2,10.21a.62.62,0,0,0,.87.87c3.68-3.11,7.23-6.37,10.81-9.61,3.19-2.88,7.2-5.7,9.6-9.28a.78.78,0,0,0,0-.08c20.52-.4,40.82-3.79,59.85-11.61,27.93-11.49,53.18-32.85,64.91-60.88a1.27,1.27,0,0,0,.42-.17c7.18-4.64,13.73-10.74,20-16.48a233.39,233.39,0,0,0,18.85-19A1,1,0,0,0,420.94,262.66Z"/><path class="cls-2" d="M349.89,351a1.85,1.85,0,0,0-2.61,2.61,19.63,19.63,0,0,1,1.64,21.19c-3.69,7.18-10.65,12-17.57,15.76-15,8.1-31.74,12.69-48.56,15-17.21,2.4-34.68,2.47-52,1.76s-35.2-1.11-52.34-4c-8.23-1.4-22.82-3.36-23.45-14-.61-10.22,8.77-16.19,15.83-21.67,1-.79-.28-2.3-1.33-1.72-7.06,3.87-14.62,9.22-17.09,17.29-2.34,7.66.54,15.1,7.8,18.61,8.82,4.26,18.94,5.91,28.59,7,10.12,1.09,20.32,1.74,30.48,2.38,38.36,2.42,79.66,2,114.32-16.8,8.4-4.55,16.68-10.82,20.28-20C356.85,366.76,356.41,356.66,349.89,351Z"/><path class="cls-2" d="M124.24,231.13c-3.49,1.44-6.37,4.53-8.91,7.25a53.38,53.38,0,0,0-7.31,9.88.94.94,0,0,0,1.63,1,62.35,62.35,0,0,1,7.41-9.11c2.57-2.56,5.82-4.49,8.24-7.16C126,232.22,125.33,230.68,124.24,231.13Z"/><path class="cls-2" d="M127.78,239.55c-7.5,6.73-14.17,15.07-20.13,23.17-.46.62.55,1.39,1.06.82,6.78-7.56,14-14.72,20.77-22.3A1.2,1.2,0,0,0,127.78,239.55Z"/><path class="cls-2" d="M139.63,243.32c-9.7,9.08-19.09,18.58-28.3,28.16a.54.54,0,0,0,.77.77c10-8.82,19.83-17.82,29.3-27.16C142.55,244,140.8,242.22,139.63,243.32Z"/><path class="cls-2" d="M143,258.32a140.46,140.46,0,0,0-15.81,12.59,150.66,150.66,0,0,0-15,14.81.65.65,0,0,0,.91.91c5.1-4.56,10-9.29,15.28-13.68s10.85-8.31,16.21-12.56C145.72,259.46,144.2,257.51,143,258.32Z"/><path class="cls-2" d="M152.61,267.56c-3.57,1.1-6.87,3.78-9.89,5.92s-5.89,4.38-8.68,6.76a118.46,118.46,0,0,0-16.61,17.48c-.63.81.47,2,1.16,1.16a130,130,0,0,1,16.34-16.17,119.4,119.4,0,0,1,9.64-7.18c3-2,6.53-3.57,9.2-6A1.2,1.2,0,0,0,152.61,267.56Z"/><path class="cls-2" d="M166.38,271.37c-14.29,11.58-28.29,23.78-41.88,36.15-.72.66.32,1.61,1,1,14.55-11.31,29-23,42.88-35.15C169.85,272.18,167.81,270.22,166.38,271.37Z"/><path class="cls-2" d="M168.29,288.38c-3.45,1.32-6.5,4-9.48,6.16s-5.75,4.25-8.57,6.45a230.31,230.31,0,0,0-18,15.56c-.61.59.28,1.43.91.91,6.07-5,12.24-9.89,18.57-14.56q4.42-3.27,9-6.37c2.88-2,6.32-3.67,8.76-6.16C170.23,289.58,169.45,287.94,168.29,288.38Z"/><path class="cls-2" d="M178.63,291.17c-3.66,2.35-6.85,5.62-10.14,8.47q-5.36,4.63-10.75,9.21Q147,318,136.3,327.32c-.68.59.3,1.52,1,1q10.8-8.7,21.54-17.47,5.24-4.29,10.49-8.56c3.61-2.92,7.72-5.67,10.89-9.07C181.14,292.16,179.9,290.35,178.63,291.17Z"/><path class="cls-2" d="M196.31,296.77c-4.4,2-8.46,6.08-12.23,9.1-4,3.23-8.05,6.5-12,9.85-8,6.84-15.88,13.91-23.64,21.06-.61.56.29,1.44.9.9,7.76-6.89,15.76-13.5,23.9-19.93,4.14-3.27,8.29-6.53,12.5-9.73,3.92-3,8.77-5.68,12-9.37A1.21,1.21,0,0,0,196.31,296.77Z"/><path class="cls-2" d="M202.18,308.19c-3,1.55-5.52,4.54-8,6.82q-4.24,3.88-8.48,7.76c-5.63,5.19-11.22,10.44-16.94,15.54-.63.56.3,1.48.93.93,5.78-5.06,11.68-10,17.54-14.93q4.15-3.51,8.28-7.06c2.74-2.33,6.17-4.55,8.2-7.54C204.36,308.73,203.1,307.72,202.18,308.19Z"/><path class="cls-2" d="M213.45,314.47c-11.82,11.58-23.83,22.8-36.64,33.29-.68.55.23,1.76.95,1.22a343.82,343.82,0,0,0,37.87-32.33A1.54,1.54,0,0,0,213.45,314.47Z"/><path class="cls-2" d="M224.28,322.26c-2.48,1.45-4.23,4.33-6.16,6.44q-3.3,3.6-6.81,7a150.69,150.69,0,0,1-15.6,13.22c-.72.53,0,1.75.71,1.22a190.86,190.86,0,0,0,16.05-12.46q3.9-3.4,7.58-7c2.12-2.1,4.85-4.22,6-7C226.49,322.61,225.12,321.78,224.28,322.26Z"/><path class="cls-2" d="M233.76,325.39c-4.51,4.38-8.31,9.63-12.62,14.24S212.3,348.71,207.6,353c-.67.61.31,1.57,1,1,5-4.28,9.83-8.65,14.53-13.21,4.4-4.27,9.28-8.64,12.83-13.66C236.89,325.76,234.86,324.32,233.76,325.39Z"/><path class="cls-2" d="M251.77,330.9c-5.3,3-9.88,7.92-14.5,11.85-5,4.25-10,8.56-15,12.79-.66.56.28,1.47.94.94,5-4,10-7.88,15-11.83,4.85-3.82,10.73-7.44,14.76-12.11A1.05,1.05,0,0,0,251.77,330.9Z"/><path class="cls-2" d="M270.27,329.06c-4.65,2.09-9,6.24-12.91,9.51a105.49,105.49,0,0,0-12.13,11.71.84.84,0,0,0,1.19,1.19c4.08-3.6,8.07-7.29,12.3-10.72s9.17-6.09,13-9.77C272.82,330,271.46,328.52,270.27,329.06Z"/><path class="cls-2" d="M284.15,333.8c-7.92,4.73-15.14,11.06-22.63,16.46-.62.45,0,1.5.61,1,7.59-5.35,16-10.16,23.07-16.14C286,334.53,285,333.3,284.15,333.8Z"/><path class="cls-2" d="M297.5,335.36c-4.34,4.22-8.25,8.54-13.2,12.11-.87.63-.09,2.06.86,1.47,5.17-3.2,10.47-7.29,13.81-12.45C299.56,335.58,298.25,334.63,297.5,335.36Z"/><path class="cls-2" d="M315.31,334.14c-5.43,3.19-10.2,8.07-15.05,12.07-.65.53.23,1.7.91,1.18,5-3.83,10.81-7.38,15.14-12A.82.82,0,0,0,315.31,334.14Z"/><path class="cls-2" d="M319.54,339.28a.67.67,0,0,0,0,1.33A.67.67,0,0,0,319.54,339.28Z"/><path class="cls-2" d="M252.8,161.21c-3.61,1.76-6.75,4.85-10.08,7.11a109.31,109.31,0,0,1-10.54,6.4c-.63.33-.08,1.23.55.94,3.91-1.81,7.81-3.7,11.54-5.85,3.34-1.93,7.31-3.94,9.85-6.89A1.09,1.09,0,0,0,252.8,161.21Z"/><path class="cls-2" d="M222.06,194.1c-6.18,5.39-12,10.54-19.58,13.93-.62.28-.08,1.17.53.9,7.35-3.18,15.1-7.31,20.48-13.41A1,1,0,0,0,222.06,194.1Z"/><path class="cls-2" d="M278.85,371.52c-7.58,4-14.5,9.91-21.45,14.87-.66.47-.06,1.55.64,1.1,7.23-4.68,15.34-9,21.87-14.6C280.69,372.22,279.69,371.08,278.85,371.52Z"/><path class="cls-2" d="M295.12,368.68c-6.93,1.56-13.48,8.43-17.7,13.78-.57.72.41,1.75,1,1a49.49,49.49,0,0,1,8.76-8c2.79-2,6-3.34,8.7-5.42C296.6,369.5,295.83,368.52,295.12,368.68Z"/><path class="cls-2" d="M322.75,360.19c-3.67,1.89-6.84,5.1-10.19,7.53s-6.92,4.88-10.45,7.21a.67.67,0,0,0,.67,1.15c3.85-2.18,7.62-4.48,11.29-7,3.28-2.2,7.26-4.39,9.86-7.39A1,1,0,0,0,322.75,360.19Z"/><path class="cls-2" d="M329.79,359.61l-4,4a.71.71,0,0,0,1,1l4-4A.7.7,0,0,0,329.79,359.61Z"/><circle class="cls-3" cx="465.95" cy="134.55" r="11.35"/><circle class="cls-3" cx="481.08" cy="92.93" r="18.92"/></svg>