<svg id="Layer_1" data-name="Layer 1" xmlns="http://www.w3.org/2000/svg" viewBox="0 0 512 512"><defs><style>.cls-1{fill:#ccf2ff;}.cls-2{fill:#fdffca;}.cls-3{fill:#c5efe7;}.cls-4{fill:#426868;}</style></defs><title>picture</title><circle class="cls-1" cx="427.08" cy="230.72" r="64.92"/><ellipse class="cls-2" cx="208.61" cy="199.68" rx="123.35" ry="95.76" transform="translate(-9.19 10.07) rotate(-2.71)"/><polygon class="cls-3" points="350.48 279.09 78.5 300.06 20.64 382.42 400.7 379.08 350.48 279.09"/><path class="cls-4" d="M344.88,102.44c-70.86-16-145.81-14.92-216.56,1a480.61,480.61,0,0,0-59.85,17.53,1.86,1.86,0,0,0-1.17,2.31c7.67,21,16.11,74.78,22.2,96.33s10.86,43.38,16.13,65.15c.25,1,2,.72,1.85-.34-3.45-21.95-9-43.74-14.83-65.15-5.8-21.24-13.93-74.67-21.27-95.43A496.59,496.59,0,0,1,283.49,97.45,525.52,525.52,0,0,1,343.84,107C346.8,107.65,347.82,103.1,344.88,102.44Z"/><path class="cls-4" d="M408.64,378.44l-8.38,1.45c.74-2.13,1-4.73,1.48-6.71.9-3.66,1.87-7.31,2.58-11a1,1,0,0,0-2-.44c-.35,1-.68,2-1,3l-5.71-7,2.41-.44c2.93-.54,1.46-4.95-1.44-4.42l-4.32.77q-29-35.23-58.55-70a5.19,5.19,0,0,1,1.73,0c0,.12.08.24.12.35.51,1.34,2.77,1.48,3-.14a18.52,18.52,0,0,0,.09-4l11-.79c2.72-.2,2.53-4.44-.2-4.24l-11.17.83v-.1q-.31-4.57-.4-9.15c-.13-6.11,0-12.22.35-18.32.69-12.52,2.21-25,4-37.38s6-81.6,6.91-87.8c.88-5.84,2-11.79,2.25-17.71.06-1.56-2.24-1.61-2.63-.23-1.68,6-2.38,12.34-3.37,18.47s-5.44,75.89-7.23,88.38c-1.7,11.88-3.14,23.82-3.81,35.81-.34,6.1-.49,12.21-.37,18.32.06,3.06-.07,6.59.13,10q-87.54,6.46-175.06,13.21c-17.88,1.41-35.75,2.81-53.62,4.34a1.29,1.29,0,0,0,.12,2.57c63.52-3.82,127-8.67,190.46-13.17q19.28-1.37,38.55-2.77c.07.4.15.79.23,1.18a5.9,5.9,0,0,0-4.08.25c-.8.37-1.5,1.44-.81,2.29C349,307.66,368.45,331.13,388,354.47q-68.68,12.32-138,20.74-72.9,8.8-146.24,13.2c-25.3,1.56-51,2.34-75.24-6.18-1-.36-1.75.81-1.54,1.69a14.09,14.09,0,0,0-2.73,0l-.21,0c3.79-2.55,6.92-6.72,10.08-10q5.17-5.32,10.33-10.66l21.13-21.81q10.33-10.66,20.61-21.37c3.37-3.5,6.69-7,10-10.56s7.45-6.92,9.68-11.1a.76.76,0,0,0-1.07-1c-3.94,2.24-7.22,6.36-10.4,9.55-3.43,3.43-6.88,6.85-10.29,10.31Q73.47,328.16,62.84,339L42.06,360.23,31.68,370.84c-3.43,3.51-7.83,7-10.37,11.2a1.66,1.66,0,0,0,1.85,2.37,1.33,1.33,0,0,0-.46.82,40.58,40.58,0,0,0,1.14,15.31C25.07,405,27.24,411,30.92,414c1,.85,3-.1,2.37-1.53A37.39,37.39,0,0,0,31.53,409a.55.55,0,0,0,.8-.2c.34-.88.69-1.76,1-2.63,2.9.44,5.82.78,8.74,1.06L41,408.8c-.58.81.5,1.86,1.17,1.07l2.11-2.48c5,.41,9.94.63,14.92.81l-.05.13c-.36.9.95,1.63,1.37.71.12-.26.25-.52.38-.78l7.25.25,7.65.24c-.42.58-.83,1.15-1.23,1.71s.56,1.25,1,.71c.67-.8,1.36-1.59,2.07-2.36q8.23.23,16.46.34a.71.71,0,0,0,1.15.1l.08-.08c3.37,0,6.74.1,10.11.13q6.51.05,13,0l-.65.54c-.66.53,0,1.64.74,1.13s1.56-1.11,2.33-1.68q9.62,0,19.23-.19c-.33.53.4,1.18.83.67.2-.24.41-.46.62-.69q8.3-.14,16.59-.35l-.41.51c-.58.74.47,1.73,1.09,1q.68-.8,1.41-1.56,7.12-.19,14.23-.45a69.31,69.31,0,0,0-4.4,5.92c-.51.77.8,1.7,1.34.94a54.07,54.07,0,0,1,5.87-7l2.08-.07q7.25-.28,14.5-.64L190.77,410c-.71.6,0,1.83.81,1.24q2.56-2,5.14-4,19.7-1,39.37-2.44l-.75,1c-.55.74.48,1.72,1.08,1s1.17-1.42,1.77-2.11q13-1,26-2.17c-.51,1.06-1,2.15-1.41,3.26-.33.87.93,1.57,1.31.68a40.61,40.61,0,0,1,2-4.12q30.63-2.83,61.13-6.77l5.43-.72a.7.7,0,0,0,.75-.1q11.31-1.5,22.61-3.15c-.33.6.47,1.32.91.73.24-.33.49-.65.74-1,17.3-2.54,34.57-5.35,51.76-8.55C411.91,382.36,411.14,378,408.64,378.44ZM43.79,404.85c-3.35,0-6.69.15-10,.37a78.08,78.08,0,0,1,5.87-11.41c.87-1.37-1.4-3-2.35-1.64A37.41,37.41,0,0,0,33,400.37a25.17,25.17,0,0,0-1.67,8.15,41.67,41.67,0,0,1-3.88-8A36.82,36.82,0,0,1,25.89,387a6,6,0,0,0,2.73-1.15,1,1,0,0,0,.36-.64,113.47,113.47,0,0,0,25,6.22l-.07.06A157.57,157.57,0,0,0,43.79,404.85Zm354.67-30.36-.75,2.56a3.22,3.22,0,0,0-.32,2.11l-.32-.06a1.44,1.44,0,0,0-1.54.71,2.91,2.91,0,0,0-.36.94q-16.36,2.76-32.75,5.24a92.34,92.34,0,0,1,14.17-11.28.88.88,0,0,0-1-1.47,55.33,55.33,0,0,0-15.49,13.1q-9.89,1.49-19.78,2.89A78.08,78.08,0,0,0,350.7,380a.85.85,0,0,0-1.08-1.28c-4.56,3-8.62,7.07-12.66,11q-13.43,1.86-26.89,3.52a60.5,60.5,0,0,1,10.53-10.36c3.7-2.81,8.24-4.55,11.8-7.45a.88.88,0,0,0-.75-1.57c-4.59.95-9.08,4.71-12.6,7.65A62.2,62.2,0,0,0,309,392.28a.77.77,0,0,0,.13,1.06q-10.81,1.32-21.64,2.52a97.63,97.63,0,0,1,8-9.45c3.35-3.51,7.53-6.37,10.66-10a1,1,0,0,0-1.3-1.53c-4.35,2.41-8,6.9-11.29,10.6a108.78,108.78,0,0,0-8,10.63q-8.15.88-16.3,1.67a36.77,36.77,0,0,1,9.58-8.68c1.9-1.19,4.14-2,5.77-3.5a.92.92,0,0,0-.71-1.52c-4.54.36-9.31,4.89-12.37,8a38.62,38.62,0,0,0-4.72,5.91l-4.55.43q-9.87.91-19.75,1.69a77.18,77.18,0,0,1,6.58-5.89c4.16-3.31,9.35-5.58,13.23-9.14.73-.67-.16-1.73-1-1.51-5,1.33-9.81,5.68-13.65,9a80.82,80.82,0,0,0-7.8,7.74q-9.47.73-18.94,1.37a83,83,0,0,1,7.93-6.51c3.67-2.64,7.68-4.66,11.44-7.15.9-.59.22-2.19-.84-1.76-7.91,3.2-15.12,9.4-21.1,15.59q-7.86.51-15.73,1c4.44-3.41,8.84-6.86,13.1-10.47,1.07-.91,0-2.77-1.22-1.88-5.25,4-10.32,8.26-15.37,12.53q-8.33.45-16.66.82c2.4-1.66,4.91-3.12,7.2-4.94a.92.92,0,0,0-.79-1.64A28.35,28.35,0,0,0,178.4,404q-6.59.28-13.19.51c2.08-1.37,4.39-2.25,6.51-3.55.87-.53.16-1.7-.72-1.51a20.28,20.28,0,0,0-9,5.18q-8.19.27-16.39.47c1.09-.93,2.21-1.83,3.39-2.66,2.76-1.94,5.91-3.14,8.7-5a.89.89,0,0,0-.76-1.59c-5.16,1.24-9.79,5.15-13.53,9.29q-8.8.2-17.59.31a91.75,91.75,0,0,0,9.93-9.52,1.18,1.18,0,0,0-1.75-1.59c-3.55,3.89-7.22,7.62-11.1,11.14l-7.66.07q-8.08.06-16.16,0a121.44,121.44,0,0,1,11.8-8.15,1,1,0,0,0-.84-1.76c-5.12,1.87-9.76,5.79-13.57,9.9q-7.79,0-15.58-.1c.5-.48,1-1,1.53-1.42,2.47-2.19,5.34-3.87,7.8-6.06.73-.65-.16-2.07-1.06-1.65-4.1,1.94-7.74,5.4-10.81,9.1l-4.38,0c-3.78,0-7.57-.15-11.36-.26a29.53,29.53,0,0,1,3.49-4.52c2.22-2.35,5-3.89,7.34-6,.74-.66-.15-1.89-1-1.58-5.11,1.83-9.2,7-11.8,12.06-4.72-.13-9.45-.25-14.17-.25a146.43,146.43,0,0,0,9.49-12,1,1,0,0,0,0-1.22c12.1,1.51,24.44,1.53,36.57,1.08,24.71-.91,49.41-2.72,74-4.75Q241,381.85,315.1,371q38.26-5.59,76.31-12.49l8.23,9.81a2,2,0,0,0,.49.42l-.55,1.87Z"/><path class="cls-4" d="M275.37,360.5c-1-2.59-3.07-5.08-4.51-7.44-3.49-5.68-6.65-11.85-10.68-17.15a1.57,1.57,0,0,0-2.64,1.71c2.53,5.21,6,10.06,9.06,15l4.23,6.89,1.41,2.3-.29-.36c-.37.52-3.12.64-3.91.8-11.37,2.34-22.76,4.65-34.19,6.66-21.12,3.72-42.44,6.36-63.9,6.48l5.53-10.82c1.08-2.11,2.16-4.21,3.23-6.33q.87-1.73,1.72-3.47l.57-1.16a3.08,3.08,0,0,0,.58-1.25,1.11,1.11,0,0,0,.7.06,2.06,2.06,0,0,0,1.49-1.31,1.28,1.28,0,0,0-.12-1.31c10.52-.37,21.12-1.78,31.54-2.72,12.65-1.14,25.28-2.41,37.91-3.66,2.06-.2,1.92-3.44-.15-3.23-12.86,1.32-25.72,2.62-38.56,4-12.38,1.38-25.12,2.16-37.31,4.77-.52.11-.32.88.16.88h2.62c-2,2.11-3.78,6.48-4.28,7.44-3.29,6.29-6.51,12.63-9.77,18.94a1.66,1.66,0,0,0,1.53,2.4c25,.21,49.8-3.26,74.32-7.8,6.11-1.13,12.21-2.33,18.31-3.56l9.13-1.86c1.75-.36,4.52-.35,5.87-1.78A2.82,2.82,0,0,0,275.37,360.5Z"/><path class="cls-4" d="M342.44,314.8a272.46,272.46,0,0,1-47.09,11.41,441.7,441.7,0,0,1-48.45,4c-32.56,1.1-65.17.07-97.69,2.32-8.85.61-17.68,1.49-26.47,2.72s-18,2.31-26.24,5.32c-.56.21-.44,1.13.2,1.07,8.13-.78,16.2-2.74,24.32-3.81s16-1.8,24-2.34c16.35-1.1,32.74-1.36,49.13-1.41,32.39-.1,65,.51,97.14-3.67,17.68-2.29,35.57-5.84,52.27-12.2C345.66,317.36,344.62,314.07,342.44,314.8Z"/><path class="cls-4" d="M341.58,313.2c-2.14-5-6.84-9.45-10.16-13.69q-2.62-3.35-5.25-6.69c1.57,0,3.14-.09,4.72-.18a1.72,1.72,0,0,0,.3-3.38,43.68,43.68,0,0,0-8.46-.73q-1.31-1.6-2.65-3.19c-.79-.93-2.39,0-1.65,1.07.51.73,1,1.45,1.54,2.18-3,.12-6,.42-9,.71-7,.7-14,1.87-20.93,3.06-13.72,2.34-27.48,4.39-41.31,6a654.37,654.37,0,0,1-84,4.47c-15.79-.22-31.55-1.15-47.33-1.74h0c.35-.58-.52-1.16-1-.67-10.68,11.82-19.68,25.42-29.15,38.22-1,1.39,1,3.22,2,1.82,9.26-12.58,19.38-25,27.49-38.34a.47.47,0,0,0,.23.1c27.42,3.83,55.36,3.77,83,3.1a609.09,609.09,0,0,0,83.72-8.09c7.83-1.28,15.64-2.65,23.52-3.54,5.29-.6,10.54-.66,15.8-.77,2,2.72,4,5.41,6.06,8.11l5.24,7c1.65,2.2,3.17,4.74,5.34,6.45C340.52,315.07,342.08,314.35,341.58,313.2Z"/><path class="cls-4" d="M148.24,320c-5.76-.16-11.6.57-17.38.58-2.71,0-5.41-.06-8.11-.17,2.53-3.87,5-7.76,7.58-11.61.46-.69-.72-1.53-1.2-.84-2.9,4.13-5.85,8.22-8.77,12.34-2.66-.14-5.31-.32-8-.55-.77-.07-1.06,1.1-.27,1.19,2.41.29,4.83.54,7.25.75q-1.75,2.47-3.47,5c-.83,1.2,1.21,2.27,2,1.06q1.95-2.9,3.86-5.82c2.62.2,5.25.36,7.88.46,6.09.22,12.65.62,18.68-.39A1,1,0,0,0,148.24,320Z"/><path class="cls-4" d="M159.57,311a30.25,30.25,0,0,1-6.34,14.94c-.9,1.13.69,2.61,1.67,1.52a25,25,0,0,0,6.42-16.3A.89.89,0,0,0,159.57,311Z"/><path class="cls-4" d="M217.19,316.05a224,224,0,0,0-23.49-.22c-.29-1.24-.6-2.45-.92-3.63a.88.88,0,0,0-1.71.31c.06,1.11.15,2.25.27,3.4-3.38.13-6.75.29-10.09.45a.73.73,0,0,0,.07,1.46c3.4.17,6.83.35,10.28.49a69.09,69.09,0,0,0,1.82,9.55,1.07,1.07,0,0,0,2.08-.38,67.82,67.82,0,0,0-1.24-9.06,220.6,220.6,0,0,0,23-.17A1.1,1.1,0,0,0,217.19,316.05Z"/><path class="cls-4" d="M297,304.19c-4.19.67-8.26,2.64-12.32,4-2.34-2.32-4.63-4.69-6.84-7.15-.5-.56-1.49.28-1,.85,1.95,2.32,3.92,4.62,5.93,6.89-4.12,1.25-8.28,2.38-12.48,3.33a184,184,0,0,1-22.91,3.72c-.35-.57-.7-1.15-1-1.74a91.4,91.4,0,0,1-4.07-8.33c-.31-.74-1.49-.38-1.2.39a79.05,79.05,0,0,0,4.12,9.87c-1.49.13-3,.24-4.47.33a.63.63,0,0,0,.06,1.27c1.74,0,3.47-.11,5.2-.2a22.61,22.61,0,0,0,2.85,3.88.71.71,0,0,0,1.15-.74,25.5,25.5,0,0,0-1.72-3.26,157.86,157.86,0,0,0,21.48-2.79q7.39-1.5,14.62-3.68l.18-.05c2.89,3.2,5.87,6.31,9,9.28,1.19,1.13,2.94-.78,1.72-1.89-2.9-2.64-5.77-5.3-8.58-8,3.73-1.08,7.71-2.23,10.82-4.34C298.18,305.34,297.9,304,297,304.19Z"/><path class="cls-4" d="M321.46,308.24c-4.28-3.52-8.83-6.77-13.2-10.19-.67-.52-1.55.41-.9,1,4.17,3.64,8.21,7.47,12.46,11C321,311,322.67,309.23,321.46,308.24Z"/><path class="cls-4" d="M336.57,121.91c-.75-.37-1.52-.72-2.29-1.06.2-.68.39-1.36.56-2,.39-1.58-2.06-2.55-2.73-1a4,4,0,0,1-1.39,1.6,170.63,170.63,0,0,0-16.81-4.94q-11.31-2.94-22.86-4.79A296,296,0,0,0,243.81,106c-32.76,0-65.3,4.88-97.26,11.74-18.58,4-37,8.65-55.28,13.8l-.25-.8c-.57-1.81-3.13-.88-2.75.9,4.28,20.14,11.84,72.46,17.06,92.37,4.87,18.55,9.55,37.2,16.53,55.09l-.49.12c-.67.18-.45,1.19.22,1.17l.78,0c.17.43.34.87.51,1.3.77,1.9,3.82.93,3.05-1l-.18-.46c10.84-.65,21.78-2.59,32.51-3.88q18.34-2.2,36.71-4.16,36.75-3.89,73.62-6.63c13.82-1,27.8-1.33,41.57-2.82a2,2,0,0,0-.18-3.9c-12.27.1-24.65,1.47-36.89,2.4q-18.77,1.43-37.5,3.21-36.81,3.47-73.48,8.32-10.34,1.38-20.65,2.92c-5.45.83-11,1.51-16.44,2.68-14.1-36.21-21.73-107.45-33-144.52,63-14.95,127-30.19,192.08-21.1a254.55,254.55,0,0,1,25.36,4.83c5.53,1.35,10.91,3.18,16.32,4.9h-.08a.36.36,0,1,0,.19,0q1.87.59,3.75,1.16c-.89,2.47-1.66,5-2.48,7.4-1.47,4.35-7.51,64.57-9.29,74.21A275.25,275.25,0,0,0,313,262.41c.05,2,3,1.78,3-.14.48-19.1,1.95-38,5.43-56.81,1.67-9,7.21-68.07,8.62-72.44.9-2.78,2-5.55,3-8.34.77.21,1.53.43,2.31.62A1.82,1.82,0,0,0,336.57,121.91Z"/><path class="cls-4" d="M189.53,180.75c-.42-2.19-2.43-36.77-3-38.93a1.71,1.71,0,0,0-2-1.29c-.84-1.74-3.93-1.41-3.67.83.9,7.73,3.23,47.89,4,55.63,0,1.27-.15,2.12-.55,2.1-1.54-.1,1.74,4.16,2.71,3.16a1.87,1.87,0,0,0,2.16-2q-.33-8.82-.72-17.63A1.62,1.62,0,0,0,189.53,180.75Z"/><path class="cls-4" d="M251,136.49c-.17-2-7.29-.28-7.41,1.37-.22,3.33,2.35,39.56,3,43a146.84,146.84,0,0,0-1.53,15.42c-.09,2,2.88,2.06,3.39.3.11-.37.21-.74.31-1.12a1.52,1.52,0,0,0,1.54-1.32,84,84,0,0,0,1.54-16.65C252.55,174.71,251.26,139.43,251,136.49Z"/><path class="cls-4" d="M283.65,200.56a12.41,12.41,0,0,0-9.49-2.35,1.07,1.07,0,0,0,.1,2.05,14,14,0,0,1,7.64,2.69c-1.38,4.6-2.24,9.21-4.24,13.63a54,54,0,0,1-7.83,12.48,52.48,52.48,0,0,1-25.47,16.67c-11.49,3.4-23.78,3.25-35.59,2s-24.23-2.91-35.49-7.26c-10.87-4.2-20.51-11.06-26.62-21.07,1.78-.69,3.68-1.15,5.09-2.43a1.36,1.36,0,0,0-.7-2.23c-2.61-.59-5.46,1.08-7.72,2.28a31.84,31.84,0,0,0-7.33,5.51c-1.58,1.55.95,3.81,2.53,2.3a28.82,28.82,0,0,1,5.15-3.94c11.59,21.87,38.57,28,61.17,30.64,23.64,2.78,49,1,66.14-17.47,6.49-7,12.82-17.18,14.13-27.15a5.9,5.9,0,0,0,1.42,2.33,1.25,1.25,0,0,0,2-.64C289.45,205.68,285.83,202.11,283.65,200.56Z"/><path class="cls-4" d="M483.36,199.5q3.09-21,4.26-42.29.58-10.65.67-21.32c0-5.9,1.1-13.36-1.28-18.94-2.3-5.4-8.17-6.44-13.33-7.61a165.54,165.54,0,0,0-19.77-3.25,169.36,169.36,0,0,0-59.5,4.3c-5.43,1.38-11,3.06-15.45,6.65-9.8,8-7.92,21.36-6.93,32.5,2.85,32-2.66,63.66-6.87,95.3a1.24,1.24,0,0,0-1.95.62c-1.84,8.37-7.86,18-2.48,26.24,4.69,7.17,14.49,9.4,22.1,11.88,11.84,3.86,23.82,7.31,35.86,10.51q8.85,2.35,17.76,4.46c4.75,1.13,10,2.78,14.84,1.36,7.32-2.14,10.36-9.8,11.58-16.93A457.22,457.22,0,0,0,483.36,199.5Zm-27.6,92c-3.54,5.53-9.09,5.3-14.91,4-12.63-2.8-25.17-6.05-37.62-9.57-6.34-1.79-12.66-3.68-19-5.61-5.1-1.56-10.46-2.91-15.17-5.49-5.28-2.89-8.29-7.45-7.35-13.6.72-4.78,2.93-9.19,3.58-14a1.08,1.08,0,0,0,1.83-.54c5.28-25.38,9.54-51.27,9.85-77.25.08-6.73-.12-13.46-.67-20.16-.49-6-1.4-12.13-.37-18.09,2.35-13.5,16.21-16.05,27.64-18.38a165.45,165.45,0,0,1,38.63-3.15,162.49,162.49,0,0,1,19.36,1.84c5.83.91,13.13,1.53,18.46,4.19,5.74,2.86,3.89,13.76,3.88,19q0,10-.48,19.9-.94,20.31-3.72,40.48a458.25,458.25,0,0,1-19.12,81.75A1.64,1.64,0,0,0,460,278l-.36,1.94c-.4,1.17-.8,2.35-1.2,3.52a1.65,1.65,0,0,0,.11,1.48A23.36,23.36,0,0,1,455.77,291.46Z"/><path class="cls-4" d="M446.21,127.88c-4.38-2-10.31-1.73-15-1.3a47.62,47.62,0,0,0-14.61,3.53,4.07,4.07,0,0,0-1.18.53,1.19,1.19,0,0,0,1,2.13,61.29,61.29,0,0,1,14.94-3.35c4.85-.34,9.59.81,14.37.6A1.14,1.14,0,0,0,446.21,127.88Z"/><path class="cls-4" d="M455.7,272.37c-.09.62.83,1.05,1.11.4,4-9.57,6.37-20,8.75-30.08,2.55-10.73,4.7-21.59,6.22-32.52,3-21.23,3.31-42.85-.21-64a2.46,2.46,0,0,0-2.83-2,1.73,1.73,0,0,0-1.31-1.09c-13.57-3-27.54-4.68-41.44-3.71a98.49,98.49,0,0,0-19.27,3.23c-3.5,1-6.87,2.25-10.29,3.47-2.89,1-9.76,1-12.28,2.63a.54.54,0,0,0,0,.92,5.12,5.12,0,0,0,.78.36,1,1,0,0,0-.73,1c0,16.09-6.29,79.08-12.19,94a1.51,1.51,0,0,0,.63,2c25.37,14,53,25.13,81.86,29.15,2.17.3,2.92-2.95.72-3.37-28-5.34-55.2-13.52-80.05-27.73,6-14.6,13.38-78.17,11.15-94.12a1.13,1.13,0,0,0-.27-.61c4.48.75,14.11-2.76,17.84-3.9a92.05,92.05,0,0,1,21-3.74c14.05-.92,28.08,1,41.74,4.16a2.06,2.06,0,0,0,.44.05c3.41,20.93,3,42.13.43,63.14-1.24,10.3-3,20.52-5.1,30.68C460.24,251.18,457.19,261.7,455.7,272.37Z"/><path class="cls-4" d="M425.12,277.43A57.19,57.19,0,0,1,396,268.87c-1.62-1-2.79,1.52-1.32,2.54a54.63,54.63,0,0,0,30.65,9.41C427.51,280.85,427.31,277.45,425.12,277.43Z"/><path class="cls-4" d="M409.23,194.42C399,192.07,393.57,203,394,211c.06,1,1.64,1.4,1.95.33,1.6-5.49,3.64-14.56,11.71-13.7,9,.95,5.22,12.13,4.05,16.94-.42,1.72,2.35,3.24,3.2,1.44C418.11,209.28,419.55,196.81,409.23,194.42Z"/><path class="cls-4" d="M442.66,200.14c-4.22-1.06-8.42,1-11,4-3.64,4.31-3.57,9.81-3.17,15.15a1.15,1.15,0,0,0,2.28.09c.67-5.49,2.35-18.11,11.31-15.47,9.2,2.71,5,13.69,4,19.59-.25,1.54,2,3,2.93,1.32C453.07,217.26,454,203,442.66,200.14Z"/></svg>