<svg id="Layer_1" data-name="Layer 1" xmlns="http://www.w3.org/2000/svg" viewBox="0 0 512 512"><defs><style>.cls-1{fill:#c5efe7;}.cls-2{fill:#f4e4ce;}.cls-3{fill:#426868;}</style></defs><title>picture</title><polygon class="cls-1" points="397.44 291.48 110.61 313.43 52.62 437.25 457 354.18 397.44 291.48"/><circle class="cls-2" cx="254.02" cy="191.95" r="99.53"/><path class="cls-3" d="M417.63,177.17a27.43,27.43,0,0,0-20.33-25.09,28.46,28.46,0,0,0-17.95.72q1.35-4.87,2.69-9.73a2.1,2.1,0,0,0-2.18-2.48c-19.34,0-38.6.1-57.91.89-.87-1.48-1.74-3-2.62-4.43-3.31-5.52-6.63-11.06-10.08-16.52,2.93-3.42,5.69-7,8.36-10.57a2,2,0,0,0-2.67-3l-5.48,3.13a1.56,1.56,0,0,0-2.23-.46c-1.17.81-2.32,1.63-3.46,2.47l-.3-.45c.85-.84,1.7-1.69,2.53-2.56,1.22-1.27-.59-3.22-2-2.27l-1.18.83a1.31,1.31,0,0,0-1.69,0l-.25.21-.17-.24c-5.81-8.28-12.85-15.37-22.37-19.19-23.31-9.34-46.24-.71-65.44,14.05-4.31-3.91-8.45-8-12.52-12-1.4-1.38-4.13.37-3.26,2.22a119.93,119.93,0,0,0,8.78,15.55l-.29.26q-3.26-2.63-6.37-5.44l-8-7.82c-1.82-1.78-4.24,1.14-2.56,2.94q4.3,4.6,9,8.77l3,2.92a52.35,52.35,0,0,1-10.44-8.27c-1.34-1.36-3.65.35-3,2a65.48,65.48,0,0,0,4.89,10.17q-1.73-1.26-3.42-2.59a1.69,1.69,0,0,0-2.18,0l-.16-.16c-1.25-1.28-3,.8-1.81,2.08a97.83,97.83,0,0,0,8.43,8,185.74,185.74,0,0,0-13.84,17.41q-3.14,4.48-6,9.15c-7.38,1.2-14.75,2.46-22.12,3.72l-11.1,1.89c-2.22.38-5.89.29-7.38,2.38s-.61,5.44-.47,7.77c.22,3.72.49,7.43.73,11.15s.43,7.32.66,11a50.73,50.73,0,0,0-7-8.75c-8.72-8.72-21.65-15.93-33.51-9-5.73,3.35-10,8.84-13.75,14.22-3.58,5.21-6.7,10.8-8.28,17-1.53,6-1.79,13.08,2,18.26,3.15,4.31,8.4,7.1,13.61,8.47-.55.5,0,1.5.67,1l.93-.66,1,.2a26.65,26.65,0,0,0,13.3-1.09c11.19,8.55,23.84,15.14,34.68,24.15a7.37,7.37,0,0,1-3.66-1c-1-.8-2.69.17-2.14,1.45,3.85,9,7.42,18.06,9.72,27.57,2.37,9.83,3.16,19.7,3.53,29.76.08,2.28,3.41,2,3.48-.24a113,113,0,0,0-13.42-56.58,35.91,35.91,0,0,1,3.64.36.61.61,0,0,0,.33-.07l.23.2,1,.88c-.88.53-.08,1.84.85,1.39l.42-.21c10,9.49,17.72,22.7,15.53,36.81a2,2,0,0,0,2,2.33q78.1-1.14,156.2-2.45,22.27-.36,44.53-.73a2.08,2.08,0,0,0,1.88-1.65,216.07,216.07,0,0,1,12.78-47.59c0,.15,0,.3.06.46.29,2.38.59,4.76.85,7.14.54,5,1.08,10,1.47,15q.57,7.18.87,14.37c.22,5.17-.17,10.57.49,15.69.22,1.68,2.9,2.08,3.14.2.62-4.83.11-10-.08-14.83q-.31-7.85-1-15.67c-.47-5.22-1-10.43-1.8-15.61-.45-3-.39-8.2-2.23-11A218.21,218.21,0,0,1,391,205.84a17.48,17.48,0,0,0,7.84-.09C411.3,202.8,418.3,189.22,417.63,177.17Zm-40.36-32.5L374.61,154c-.13.46-.27.92-.41,1.38a32.28,32.28,0,0,0-8.91,8.34c-5,6.81-8.3,14.76-11.94,22.34q-1.71,3.57-3.4,7.15-12.73-25.66-27.23-50.39C340.91,143.86,359.06,144.31,377.27,144.67Zm-68.92-29.3c-.45.55-.9,1.09-1.35,1.64l-.43-.67Zm-6.42,7,0,0h0l.23-.34v0c.59-.8,1.17-1.61,1.75-2.43l.37.59c-1,1.17-2.11,2.32-3.21,3.44C301.37,123.17,301.65,122.77,301.93,122.35Zm-85.58-18.11C232,92.52,251.69,84.88,271.33,90c10,2.63,17.91,8.71,24.06,17q1.25,1.68,2.46,3.39l-3.34,2.82a82.11,82.11,0,0,0-11.67,7.31,51.4,51.4,0,0,0-13,5.44,52.87,52.87,0,0,1-9.15.51,1.44,1.44,0,0,0-.52-.32,59.56,59.56,0,0,0-17.23-3.58c-10.15-4-19.08-10.46-27.36-17.71Zm75.89,21.83q-1.48,1.21-3,2.35c.6-.57,1.2-1.13,1.81-1.68Zm-70.29,3.26-.43-.52q2.14.68,4.34,1.18a1.52,1.52,0,0,0,1.9-1.45L229,129l-.15,0c-1.45.3-2.31,2.41-.62,3.14l.11,0a1.38,1.38,0,0,0,.86,1.65,64.51,64.51,0,0,0,10.23,2.73,16,16,0,0,0,6.84,1.34,1.66,1.66,0,0,0,1.4.87,53.26,53.26,0,0,0,22.64-4.22c1.12-.36,2.23-.75,3.34-1.17a1.35,1.35,0,0,0,.46.19,89.31,89.31,0,0,1-17,7.63,99.89,99.89,0,0,1-44.88-11c-1.48-.76-2.93-1.57-4.37-2.4a1.68,1.68,0,0,0-.54-1.06,111.59,111.59,0,0,0,12.91,5.15C221.61,132.37,222.8,130.42,221.95,129.33Zm20.79,3.78q.86-.28,1.73-.53a46.18,46.18,0,0,0,6.55.82l-.87.51A57.09,57.09,0,0,1,242.73,133.11Zm35,2.41-.6.66a1.71,1.71,0,0,0-.39.72q-2.73,1.26-5.57,2.29Q274.53,137.48,277.73,135.52ZM212.3,107.4a133.63,133.63,0,0,0,13.77,10.76,69.1,69.1,0,0,0-11.51-5.65,1.68,1.68,0,0,0-.77-.1c-1-1.28-1.93-2.59-2.86-3.91ZM209.65,105l-.7.58c-.65-1-1.29-2-1.91-3Q208.34,103.83,209.65,105Zm-8.22,12a52.93,52.93,0,0,0,13.43,9.13l.33.36a104.91,104.91,0,0,1-15-7.43l-.34-.46C200.34,118.13,200.89,117.59,201.43,117.06Zm-5.16-5.5c.88,1.09,1.81,2.12,2.77,3.13l-1.23,1.25a61.05,61.05,0,0,1-3.55-5.8Q195.25,110.87,196.27,111.56Zm-60.69,47c1.13-1.72,6.44-1.58,8.52-1.91L154.56,155q7.82-1.23,15.64-2.48A160.71,160.71,0,0,0,152.09,199a1.16,1.16,0,0,0-.44.45c-1.62,2.83-5.57,2.86-8.18,1.44-3.32-1.8-5-5.8-6.53-9-.15-.31-.31-.61-.46-.92-.05-4.22-.23-8.45-.34-12.66l-.27-10.52c0-1.31-.06-2.63-.1-3.94C135.74,162.79,135,159.37,135.58,158.56Zm269.67,38.6a15.73,15.73,0,0,1-8.69,4.12c3.6-5.22,5.06-11.33,5.64-17.61.08-.86-1.24-.84-1.34,0-.77,6.45-3.91,11.84-7.6,17a1.27,1.27,0,0,0-.22.51c-.34-.06-.69-.12-1-.2a2.48,2.48,0,0,0-1.48-.45,21.8,21.8,0,0,1-9.42-7.14,24.35,24.35,0,0,0,3.44-15.46c-.17-1.14-1.73-.7-1.85.25a34.32,34.32,0,0,1-3.54,12.46,31.48,31.48,0,0,1-2.94-5.94c-1.05-2.87-5.56-1.3-4.49,1.58,2.68,7.25,8.12,14.82,15.26,18.18a222.24,222.24,0,0,0-29.41,80.3Q280.28,286,203,287.34l-42.2.77c1.18-14.11-6.21-27.25-16.15-36.92l5.7-2.84c3.14-1.56,6.65-2.9,9.44-5,.81-.62.4-2.17-.76-1.8-3.25,1-6.23,3.05-9.2,4.69l-6.61,3.65a92.34,92.34,0,0,0-9.14-7.35c5.33-3.39,11-6.57,16-10.4.84-.64.12-2-.85-1.46-5.66,3.21-11,7.33-16.33,11-9-6.21-18.76-11.33-27.78-17.47,6.89-3.28,12.06-9.59,12.51-18,.12-2.31-3.78-2.55-4.07-.26-1.34,10.52-10.26,16.46-19.87,16.39l2.94-2.08c2.75-1.94,6.12-3.67,8.35-6.19a.86.86,0,0,0-1-1.35c-3.19,1.45-5.92,4.28-8.69,6.42l-4,3.05a23.6,23.6,0,0,1-4.42-.93A26.32,26.32,0,0,1,83.56,220a32,32,0,0,1,5.83-7.23c3.1-2.85,6.85-4.12,10.14-6.53a1.05,1.05,0,0,0-.81-1.91c-3.82.61-7.75,4-10.46,6.62a33.56,33.56,0,0,0-6.21,8.29c-4.19-2.35-7.34-6-7.62-11.24a23.58,23.58,0,0,1,.17-4.21,1.25,1.25,0,0,0,.5-.52c2.58-4.79,6.08-8,10.13-11.49,1.3-1.12-.37-3.19-1.81-2.35A23.43,23.43,0,0,0,77,195.18a51,51,0,0,1,2.7-5.41c5.44-9.52,15.05-23.13,27.75-19.85,11.58,3,20.9,13.08,26.17,23.37l.52,1c.13,1.29.27,2.57.44,3.85a.89.89,0,0,0,1.76.12c1.74,2.76,3.93,5.17,7.17,6.1,3.55,1,7.62.22,9.56-3a1,1,0,0,0,.81-.77,205.4,205.4,0,0,1,20.62-48.82,2.34,2.34,0,0,0,1.54-2.59,170.18,170.18,0,0,1,19.48-26,101.73,101.73,0,0,0,16,10.32,1.5,1.5,0,0,0-.14.4l-2.49,13.43a33.42,33.42,0,0,0-1.8,6.44c-1.47,3.59-3.26,7-4.41,10.7-.47,1.5,1.74,2.44,2.67,1.31l.13-.17c0,.23-.07.47-.1.7-.3,1.89,2.56,2.48,2.93.59L210.59,155c.45-1.41.86-2.8,1.25-4.12A58.5,58.5,0,0,0,214.53,135a103.45,103.45,0,0,0,20.37,7.24,106.75,106.75,0,0,0,13,2.3,1.89,1.89,0,0,0,1.79,2.34A75.66,75.66,0,0,0,263.3,145a64.52,64.52,0,0,0,20.27-4.41,1.42,1.42,0,0,0,2,.2c.91-.77,1.8-1.56,2.67-2.35l.15-.08.1.57a1.56,1.56,0,0,0-.27,1.53c.53,1.66,1,3.38,1.5,5.11a159.58,159.58,0,0,0,7.37,24.6c.61,1.57,3.42,1.18,3.06-.63l-.09-.41h0q-1.58-7.83-3.84-15.47-.35-1.24-.76-2.49-1.56-5-3.42-9.89c1,1.16,2,2.39,3,3.55.57.67,1.71-.06,1.16-.79-1.75-2.29-3.82-4.6-5.08-7.22,1-.6,2-1.23,2.9-1.91a80.39,80.39,0,0,0,12.47-11.21c2.21,3.6,4.38,7.22,6.56,10.8q18.79,30.91,34.72,63.42-3.81,8.2-7.47,16.49a1.27,1.27,0,0,0,2.27,1.12c2.44-4.57,4.81-9.17,7.15-13.78,1.37,1.67,4.59.39,3.54-1.79-.43-.88-.87-1.76-1.3-2.64,3.35-6.68,6.65-13.38,10-20.06,2.78-5.5,6-11.08,10.41-15.25A18.39,18.39,0,0,0,372,165c0,1.83,2.45,2,3.23.64a29.27,29.27,0,0,0,2.76-7.86,21.94,21.94,0,0,1,8-2.45c10.24-1.1,21.07,4,25.18,13.73C415.17,178.39,412.95,190.41,405.25,197.16Z"/><path class="cls-3" d="M382.08,297.15c-7-1.36-14.66-.65-21.75-.7q-11.29-.09-22.59,0-22.59.08-45.17.67-44.83,1.16-89.58,4.36-12.59.91-25.17,2-6.29.55-12.57,1.13c-2.18.2-4.46.24-6.61.63-1.88.34-3.52,1.31-5.39,1.74-.82.18-.43,1.31.28,1.34,1.87.06,3.53.71,5.38.71s3.55-.31,5.29-.46q6-.51,11.92-1,10.93-.87,21.86-1.65,22.2-1.57,44.43-2.67,44.46-2.25,89-2.54,12.62-.08,25.25,0,6,0,12,.11c4.38.05,8.92.49,13.26-.2C383.69,300.27,384.09,297.54,382.08,297.15Z"/><path class="cls-3" d="M143,313.54a.57.57,0,0,0-.59-.51c-3.11.19-5.44,4.92-7.25,7.15q-4.23,5.22-8.53,10.38Q118,340.86,109,350.82T90.41,370.27q-4.53,4.54-9.16,9c-3,2.85-7.36,5.75-9.3,9.4A1.71,1.71,0,0,0,74,391c3.51-1.5,6.31-5.12,9.05-7.73q4.86-4.64,9.61-9.39,9.71-9.73,18.92-19.94,9-10,17.51-20.4,4.24-5.22,8.31-10.57c1.36-1.79,2.7-3.58,4-5.42C142.44,316.06,143.36,315.33,143,313.54Z"/><path class="cls-3" d="M443.43,370.57c-2-3.95-5.76-7.22-8.68-10.53l-9.67-11q-9.89-11.21-19.79-22.41c-6.28-7.06-12.55-14.13-18.9-21.13-1.35-1.49-4.09-6-6.7-4.51-1.22.71-1.69,2.29-.52,3.2a.66.66,0,0,0,1-.87c1.31,2.33,4.78,5.52,6.81,7.9,2.44,2.86,4.92,5.69,7.39,8.52q7.86,9,15.75,18l15.35,17.46,7.46,8.48c2.48,2.82,4.9,6.47,8,8.58C442,373,444.24,372.17,443.43,370.57Z"/><path class="cls-3" d="M431.44,398.13c5.27-5.79,7.53-15.24,6.41-22.39a1.22,1.22,0,0,0-2.44.17A27.15,27.15,0,0,1,433,389.17c-1.7,3.61-4.27,6.11-6.91,8.87q-13.83,1.14-27.67,2.23a25.25,25.25,0,0,0,7.71-5.31.89.89,0,0,0-1.26-1.26,27.19,27.19,0,0,1-12,6.56.78.78,0,0,0-.57.47q-10.41.81-20.82,1.6c4.62-2.43,9.23-4.89,13.72-7.55a.84.84,0,0,0-.84-1.44c-6,2.9-11.79,6.14-17.61,9.35L349.49,404c4.73-3.47,9.5-6.91,14.06-10.6.65-.53-.21-1.64-.9-1.17-5.47,3.79-10.7,7.95-16,12q-9.3.66-18.61,1.31a45.91,45.91,0,0,0,15.15-10.56.81.81,0,0,0-1.14-1.14c-5.09,4.28-10.18,8.08-16.26,10.85a.7.7,0,0,0-.34,1c-5.66.38-11.32.78-17,1.15,3.34-3.09,6.66-6.21,9.71-9.55a.74.74,0,0,0-1-1c-3.94,3.36-7.61,7.08-11.27,10.77l-14.06.89q-19.42,1.21-38.84,2.28c4.13-3.19,8.3-6.33,12.3-9.68.61-.51-.21-1.6-.86-1.12-4.66,3.49-9.14,7.26-13.67,10.92l-15.58.87a94.5,94.5,0,0,1,17.57-12c.9-.49.11-1.77-.79-1.35A71,71,0,0,0,234,410.23a.63.63,0,0,0,0,.95q-14.4.77-28.81,1.5c3.15-2.7,6.3-5.42,9.34-8.23.66-.61-.31-1.54-1-1-3.56,3-7,6.16-10.47,9.31l-13.89.69,2.16-2.11c.83-.81-.46-2.1-1.27-1.27l-3.42,3.5-15.65.75c.67-.73,1.37-1.44,2.1-2.12,2.18-2,4.72-3.51,7-5.39.53-.44,0-1.46-.69-1.19-4.12,1.73-7.73,5.13-10.66,8.8l-12.32.56a66.29,66.29,0,0,0,8.54-8.16c.47-.56-.14-1.59-.85-1.1a79.29,79.29,0,0,0-10.47,9.38h-.24l-11.81.51c4.8-4.53,9.94-8.87,14.12-13.92a.83.83,0,0,0-1.17-1.17c-5.41,4.49-10,10.08-14.92,15.17l-12.83.55a107.81,107.81,0,0,1,15.36-14.42c.91-.72-.25-2.13-1.22-1.58-6.46,3.75-12.26,9.81-16.35,16.09l-10.46.45-3.43.13a38.29,38.29,0,0,1,6-6.46c2.78-2.34,6.16-3.7,8.93-5.95.71-.58-.08-1.54-.81-1.4-3.53.68-6.94,3.55-9.57,5.89a36.17,36.17,0,0,0-6.68,8c-4.35.16-8.72.31-13.08.49,3.92-4.55,8.3-8.66,12.09-13.31a1,1,0,0,0-1.42-1.42c-5,3.94-9.05,9.54-12.79,14.83-4.78.22-9.56.5-14.3.94,2-2.35,3.89-4.73,5.83-7.1,2.59-3.16,6.09-6.38,7.81-10.11a1.46,1.46,0,0,0,.06-.17c16.43-1.42,32.85-3.26,49.26-4.81q34.82-3.28,69.66-6.24,69.71-5.82,139.52-10.05,19.28-1.16,38.57-2.2c13.25-.71,26.73-.7,39.9-2.25a2,2,0,0,0-.28-4c-11.5-.26-23.13.88-34.61,1.49q-17.63.94-35.25,2-34.91,2.09-69.79,4.66-69.76,5.1-139.38,12c-26,2.58-52.29,4.86-78.12,9.1l-.16,0c-.81-2.56-1.5-5.19-2.12-7.9-.35-1.51-2.7-.93-2.62.54.48,8.37,4.09,16.6,8.72,23.47a1.54,1.54,0,0,0,1,.69l-.89,1.19L75,419a.73.73,0,0,0,.1,1.46h0l-.37.51c-.61.84.76,1.9,1.44,1.11l1.29-1.51c4.74.21,9.51.24,14.28.18a.78.78,0,0,0,1.21,0c5.62-.08,11.23-.26,16.82-.38q17.32-.4,34.63-1l6-.21a.71.71,0,0,0,1.05.11l.17-.15,14.15-.51-.06.09c-.52.81.75,1.54,1.28.75.21-.31.43-.6.64-.9q7.39-.28,14.79-.59l-1.78,1.82a.74.74,0,0,0,1,1l3-3,13.55-.57a.58.58,0,0,0,1,.53l.69-.6,13.7-.61c46.13-2.14,92.23-5,138.29-8.28q39.2-2.8,78.36-6.11A2.31,2.31,0,0,0,431.44,398.13ZM78.94,415.08a51.36,51.36,0,0,1-6.16-12.4c5.59-.33,11.17-.74,16.76-1.2C87.07,404,85.1,407.3,83,410l-4,5.24S79,415.13,78.94,415.08Z"/><path class="cls-3" d="M228.06,354.61c-4.37,3.19-8.41,6.75-12.44,10.36s-9.2,7.3-12.62,11.69a1.35,1.35,0,0,0,1.78,2c4.46-2.85,8.25-7.24,12.12-10.83,4.2-3.89,8.38-7.79,12.17-12.08A.77.77,0,0,0,228.06,354.61Z"/><path class="cls-3" d="M328.46,361.85c-3.38-5.82-8.32-11.48-14.27-14.76-6.8-3.74-13.66-2.2-20.78-.34a219.3,219.3,0,0,1-55.82,7.15c-1.12,0-1,1.67.12,1.71a199.27,199.27,0,0,0,50-4.06c7.6-1.63,16.07-5.43,23.64-1.88,6.41,3,10.31,9.08,14.92,14.16C327.45,365.14,329.26,363.22,328.46,361.85Z"/><path class="cls-3" d="M315,361.47c-4.35,0-8.93,1.12-13.25,1.72L288.5,365,262,368.69c-17.64,2.44-35.42,4.56-52.93,7.8-.94.17-.9,1.61.11,1.52,17.94-1.54,35.83-4.25,53.68-6.6l26.49-3.49,13.25-1.74c4.25-.56,8.84-.68,13-1.85C317.27,363.85,316.56,361.48,315,361.47Z"/><path class="cls-3" d="M386.63,327.38c-16.1-.44-32.47,1.25-48.55,2.15s-32.34,1.94-48.5,3.1q-48.48,3.48-96.81,8.62c-18.09,1.91-36.28,3.61-54.2,6.8a.94.94,0,0,0,.13,1.88c16.15-1,32.24-3.08,48.34-4.72s32.24-3.14,48.38-4.53q48.42-4.14,96.94-6.92c8.86-.5,17.73-1,26.59-1.36,9.29-.41,18.67-.4,27.92-1.39A1.83,1.83,0,0,0,386.63,327.38Z"/><path class="cls-3" d="M155.62,323.86a237.75,237.75,0,0,0-21.54,23.53c-.72.92.62,2.1,1.37,1.19,6.81-8.19,13.65-16.29,21.1-23.92C157.11,324.1,156.18,323.31,155.62,323.86Z"/><path class="cls-3" d="M368.48,303q-28.46,2.91-57,5.48l-1.36-.91c-.84-.56-1.88.48-1.28,1.16q-51.2,4.6-102.49,8-23.28,1.52-46.57,2.9a1.21,1.21,0,0,0,.17,2.42q36.68-1.5,73.33-3.9a.7.7,0,0,0-.28.62c.07,1.47.14,2.94.19,4.42,0,.53,0,1.08,0,1.62-6,.52-12.08.93-18.12,1.37a.58.58,0,0,0,.08,1.15c6.12.08,12.23-.13,18.34-.51,0,.11.07.22.12.33a.75.75,0,0,0,1.43-.1c0-.11.05-.22.07-.34l1.93-.13c6.88-.49,14-.86,20.7-2.38,1.1-.25.66-1.93-.39-1.89-7,.32-14.09,1.56-21.11,2.22l-1.11.1c-.06-.53-.15-1.06-.2-1.57-.16-1.47-.29-2.93-.43-4.4a.7.7,0,0,0-.36-.57q12.79-.83,25.57-1.76c2.16,4.73,4.29,9.47,6.45,14.21a1.2,1.2,0,1,0,2.13-1.08q-3.47-6.63-6.94-13.25,10.19-.74,20.37-1.54c3.69,5.47,8.3,11,13.85,14.45,1.16.73,2.27-1.09,1.3-1.95-4.66-4.14-9.17-7.89-13.05-12.67q14.8-1.16,29.6-2.44l7.5,5.42.84.62c-6,.49-12,1-18,1.72a.84.84,0,0,0,.12,1.67c6.15-.12,12.29-.47,18.43-.83l2.51-.15a27.15,27.15,0,0,0,7.49,4.64c.76.26,1.82-.54,1.17-1.34a19.87,19.87,0,0,0-4-3.57l2.09-.12c2.72-.16,5.56,0,8.17-.85a1.17,1.17,0,0,0-.16-2.23c-2.7-.46-5.5.08-8.21.3l-5.73.47c-1.11-.67-2.2-1.33-3.2-2l-6-4,5.82-.5q11.59-1,23.17-2.14A240.54,240.54,0,0,0,364.64,326c1.45,1.14,3.34-1.11,1.86-2.15A222.75,222.75,0,0,1,347.61,309q10.57-1,21.14-2.1C371.22,306.65,371,302.79,368.48,303Z"/><path class="cls-3" d="M385.65,322.52c-3.37-3-8-5-11.92-7.21-4.29-2.47-8.57-4.95-12.93-7.29-.84-.45-1.76.86-.94,1.42,3.82,2.6,7.71,5.09,11.6,7.58s8.22,6.07,12.69,7.78A1.39,1.39,0,0,0,385.65,322.52Z"/><path class="cls-3" d="M190.84,331c-2.92-.05-5.93.81-8.83,1.23-2.74.4-5.49.72-8.26.93-1.06.08-2.13.15-3.19.2l.09-.13a67,67,0,0,1,5.57-6.78c.76-.81-.5-1.85-1.28-1.11a61.2,61.2,0,0,0-6.52,7.18l-.74,1c-4.07.12-8.15.06-12.22-.21-.9-.06-1.22,1.31-.29,1.41,3.67.41,7.35.69,11,.78a12.17,12.17,0,0,0-2.05,4.23.91.91,0,0,0,1.56.77,22.4,22.4,0,0,0,3.49-5c1.35,0,2.7,0,4.05-.1,5.67-.27,12.72-.28,17.93-2.68A.88.88,0,0,0,190.84,331Z"/><path class="cls-3" d="M202.56,323.57c-.33.95-1.16,2-1.58,2.92-.51,1.15-1,2.28-1.64,3.39-1.11,2-2.79,3.93-3.63,6.09-.33.85.59,1.92,1.45,1.26,1.86-1.44,3.06-3.86,4.09-5.94a36.88,36.88,0,0,0,1.5-3.45c.5-1.34.45-2.59.81-3.92C203.71,323.34,202.76,323,202.56,323.57Z"/><path class="cls-3" d="M322.53,216.94a65.61,65.61,0,0,0-11.87-15.86c-9.94-9.36-23.29-10.65-36.31-9.32a284.16,284.16,0,0,0-39.23,6.77c-14.33,3.55-28.73,9.14-39.93,19-7.89,7-14.13,16.42-14.55,26.84a2,2,0,0,0-.49,1.88,29.73,29.73,0,0,1,.6,6c-.48.63-1,1.26-1.47,1.88-.94,1.16.45,2.77,1.51,2.11a32.76,32.76,0,0,0,1.09,9.55,1.21,1.21,0,0,0,.47,1.24,9.74,9.74,0,0,0,7,5.72c6.27,1.58,14-.54,20.21-1.81a132.08,132.08,0,0,0,21.67-6.41c13.14-5.16,27.81-13.55,42.16-8,6.11,2.38,11.47,6.38,18,7.8a30.69,30.69,0,0,0,18.24-1.7,30.32,30.32,0,0,0,18.3-27.27C328.07,228.86,325.7,222.63,322.53,216.94Zm-93.58-12.38c11.52-3.41,23.44-5.25,35.3-7,11.34-1.67,24-3.69,34.86,1.19,5.75,2.59,10.24,7.06,13.93,12.08a62.94,62.94,0,0,1,8,13.69,14.34,14.34,0,0,1-14-12.89,1.72,1.72,0,0,0-3.39-.22c-1.29,4.34-5.63,6.93-10,7q1.57-2.81,3.1-5.64a.82.82,0,0,0-1.41-.82q-1.82,3.18-3.72,6.3c-5.12-.85-9-4.67-11.61-9-1-1.61-3-.43-3.11,1.08-.29,6-5.57,10.39-11.25,11.65a.73.73,0,0,0-1.11,0l-.16.2c-.44.06-.88.1-1.32.13a20.4,20.4,0,0,1-5.66-.53q1.38-2.34,2.73-4.69a.63.63,0,0,0-1.08-.63q-1.55,2.48-3.17,4.92c-5.06-1.53-9.7-4.68-13.76-7.93a1.45,1.45,0,0,0-2.37,1.18,13.64,13.64,0,0,1-19.41,12.61,37.16,37.16,0,0,0-3.67-2,3.9,3.9,0,0,0-4.63,1.37c-1.63,2.13-1.94,5.08-3.45,7.35a15.36,15.36,0,0,1-3.15,3.47.71.71,0,0,0-.56.37l-.05.08a7.36,7.36,0,0,1-6,1.37,7,7,0,0,1-4.88-4.31l.23-.58a.87.87,0,0,0-.84-1.14,30.8,30.8,0,0,1-.78-7.89C201.94,215,216.76,208.16,228.95,204.56Zm-44.54,42.66a17.53,17.53,0,0,0-.67-2.21,2.24,2.24,0,0,0-.25-.47,32.43,32.43,0,0,1,7.12-16.79,20.47,20.47,0,0,0,1.12,7.38C189.41,239.27,187,243.32,184.41,247.22Zm.81,13.49c-.25-3.25,0-6.49-.25-9.68a77.89,77.89,0,0,0,7.94-13.54,9.4,9.4,0,0,0,2.64,2.71,8.37,8.37,0,0,0,7.24,1.11,101.87,101.87,0,0,1-8.43,11.57c-1.83,2.15-3.73,4.24-5.73,6.23-1,1-2.17,2-3.27,3C185.3,261.64,185.25,261.17,185.21,260.7Zm6.16,8.17a7.39,7.39,0,0,1-3.19-1.19,5.92,5.92,0,0,1-2-2.52c3.85-3.11,7.22-7.45,10.13-11.14a95.09,95.09,0,0,0,9.14-13.89,16.9,16.9,0,0,0,5.7-5.82c1-1.61,1.22-3.74,2.22-5.25,2-3.07,5.24.15,7.34.94l.18.06c-4.87,6-9.61,12-14.31,18.14-5,6.48-11,12.88-15.06,20A1.07,1.07,0,0,0,191.38,268.87Zm39.85-15c-.84.91-2,1.61-2.77,2.57A3.16,3.16,0,0,0,228,260a2.22,2.22,0,0,0,.86.79c-9.71,3.54-19.5,6.44-30,7.72-1.53.19-3.27.46-5,.52,5.21-5.56,9.41-12.47,13.92-18.59,4.86-6.6,9.69-13.21,14.36-19.95a16.78,16.78,0,0,0,9.37-.14,14.9,14.9,0,0,0,2.67-1.13c-2,2.23-3.7,4.79-5.47,7.15-2.58,3.44-5.21,6.85-7.9,10.21-4.89,6.1-10.65,11.77-14.92,18.3-.7,1.07.8,2,1.67,1.29,6.09-5.13,10.89-12.16,15.72-18.47,4.67-6.1,10.6-12.66,13.45-19.86a.36.36,0,0,0,0-.34,17,17,0,0,0,5.71-10.14A44.15,44.15,0,0,0,254.22,224a303.16,303.16,0,0,1-19.78,26.1C233.38,251.35,232.34,252.63,231.22,253.83Zm27.09-2.95c.63-.59,1.24-1.2,1.85-1.82a1.06,1.06,0,0,0,.3-.94c6.62-8.33,12.39-17.61,18.08-26.51.58-.9-.8-1.65-1.41-.82-7.13,9.65-15,18.91-21.78,28.81a1.3,1.3,0,0,0,.23,1.79,85.93,85.93,0,0,0-14,4.46c-3.42,1.36-6.81,2.7-10.21,4a2,2,0,0,0-.07-1.8c1.31-1.31,2.87-3.26,3.14-3.58q2.18-2.61,4.29-5.27c2.5-3.15,4.94-6.35,7.29-9.61,3.52-4.88,6.74-9.92,9.83-15.06a23.13,23.13,0,0,0,6.11.89c-5.74,7.34-11.66,14.56-17.41,21.89-1,1.29-5.07,5-2.67,7,1.31,1.05,2.7-.11,2.7-1.55a1,1,0,0,0-.25-.66,2.38,2.38,0,0,0,.78-1l1.54-2.09,2.3-3.13q2.88-3.91,5.76-7.83c3.06-4.17,6-8.43,9.06-12.61.57,0,1.14-.11,1.72-.21,6-1,11.76-5,13.94-10.75a20.07,20.07,0,0,0,10.33,7q-3.28,5.3-6.76,10.48c-2.13,3.15-4.31,6.26-6.52,9.36-2,2.78-5.21,5.85-6,9.21a1,1,0,0,0,0,.51A36.21,36.21,0,0,0,258.31,250.89ZM309,257.77l-.47.21a142.94,142.94,0,0,0,12.9-24.88c.31-.79-1-1.36-1.38-.58A111.79,111.79,0,0,1,306,256.45a1.54,1.54,0,0,0,.43,2.38,26,26,0,0,1-14,.85c-3.94-.87-7.47-2.81-11-4.66,1.93-2.06,3.34-4.7,4.89-7q2.73-4.1,5.44-8.22,5.6-8.51,11-17.11c.44-.7-.61-1.26-1.08-.63q-6.11,8.19-12,16.51-2.87,4-5.73,8c-1.66,2.35-3.61,4.64-4.83,7.26-1-.47-1.93-.91-2.92-1.31a29.34,29.34,0,0,0-3.63-1.18c2.55-1.77,4.15-5.1,5.85-7.64q3.35-5,6.49-10.11,3.62-5.87,7-11.88a14.91,14.91,0,0,0,1.61.11,14.3,14.3,0,0,0,11.31-5.32,18,18,0,0,0,10.2,10.28.82.82,0,0,0-.31.27c-3.39,4.9-6.86,9.73-10.26,14.62s-7.18,9.59-10.06,14.73c-.73,1.3,1.16,2.92,2.15,1.66,3.59-4.56,6.48-9.75,9.62-14.63,3.33-5.18,6.58-10.41,9.92-15.58a.69.69,0,0,0,.07-.68,16.27,16.27,0,0,0,6,.7l.15,0h0C325.52,239.47,320,252.58,309,257.77Z"/><path class="cls-3" d="M92.6,196.31c-5.6,4.37-11,9-16.44,13.59-1,.83.34,2.57,1.38,1.79,5.77-4.35,11.57-8.7,17.15-13.28C96.19,197.19,94.08,195.16,92.6,196.31Z"/><path class="cls-3" d="M127.78,218.09c-4.49,0-8.08,5.2-8.78,9.16-.18,1,1.28,1.44,1.55.43a10.76,10.76,0,0,1,2.94-5c1.42-1.36,3.13-1.87,4.77-2.85A.94.94,0,0,0,127.78,218.09Z"/><path class="cls-3" d="M139,224.37c-4,4.26-11,11.11-16.77,5.51a.56.56,0,0,0-.8.8c6.32,6.37,14.26-.08,18.68-5.2C140.78,224.73,139.71,223.63,139,224.37Z"/><path class="cls-3" d="M395.78,176.7a52.09,52.09,0,0,1-8.3,16.88c-1,1.38,1.28,3.15,2.38,1.84a34,34,0,0,0,7.59-18.49C397.51,176,396,175.81,395.78,176.7Z"/><path class="cls-3" d="M232.79,397.79c-5.69,3-10.72,7.87-15.14,12.47-.63.66.36,1.66,1,1,4.62-4.69,9.86-8.31,14.93-12.44C234.19,398.33,233.42,397.45,232.79,397.79Z"/><path class="cls-3" d="M284.58,396.49A64.52,64.52,0,0,1,271,405.87c-1,.5-.12,2,.88,1.5a45.27,45.27,0,0,0,13.79-9.77A.78.78,0,0,0,284.58,396.49Z"/><path class="cls-3" d="M299.75,397.66l-8.15,5.57c-.85.58-.06,2,.81,1.39l8.25-5.4C301.62,398.58,300.7,397,299.75,397.66Z"/><path class="cls-3" d="M145.3,98.35a73.44,73.44,0,0,0-30.22,29.57c-.76,1.41,1.36,2.65,2.15,1.26a74.51,74.51,0,0,1,29-29.17C147.36,99.41,146.39,97.77,145.3,98.35Z"/><path class="cls-3" d="M141.26,80.14a60.29,60.29,0,0,0-26,15.1A62.53,62.53,0,0,0,106,107c-2.35,3.85-5.44,9-5.56,13.67a1.19,1.19,0,0,0,2.2.6c2.43-3.7,3.59-8.36,5.85-12.24a59.07,59.07,0,0,1,8.91-11.66,59.86,59.86,0,0,1,24.42-15.22A1,1,0,0,0,141.26,80.14Z"/><path class="cls-3" d="M405,114.39c-6.42-8-16.74-12.42-26.85-12.69-1.1,0-1.08,1.63,0,1.69,10.07.6,18.44,5.36,25,12.82C404.31,117.46,406,115.65,405,114.39Z"/><path class="cls-3" d="M428.79,102.13a39.37,39.37,0,0,0-9.21-9.75c-8.45-6.45-18.86-9.51-28.91-12.49-1-.29-1.38,1.21-.42,1.53C399.54,84.57,409.1,87.8,417,93.8a37.05,37.05,0,0,1,8.87,9.46c2.29,3.58,2.86,7.62,4.74,11.29a1.16,1.16,0,0,0,2.1-.27C433.41,110.18,431,105.47,428.79,102.13Z"/></svg>